<svg width="1728" height="700" viewBox="0 0 1728 700" fill="none" xmlns="http://www.w3.org/2000/svg">
<mask id="mask0_4_761" style="mask-type:alpha" maskUnits="userSpaceOnUse" x="0" y="-1" width="1729" height="701">
<path d="M0.000183266 -0.00012207L1728 2.89963e-05L1728 700L1712.12 700C1549.35 398.579 1230.59 193.787 864 193.787C497.408 193.787 178.649 398.58 15.8839 700L0.00012207 700L0.000183266 -0.00012207Z" fill="#D9D9D9"/>
</mask>
<g mask="url(#mask0_4_761)">
<g filter="url(#filter0_f_4_761)">
<circle cx="797.462" cy="593.319" r="498.626" transform="rotate(90.3108 797.462 593.319)" fill="url(#paint0_linear_4_761)"/>
</g>
<g filter="url(#filter1_f_4_761)">
<path d="M1429.44 759.762L674.36 1190.26L679.074 321.095L1429.44 759.762Z" fill="url(#paint1_linear_4_761)"/>
</g>
</g>
<defs>
<filter id="filter0_f_4_761" x="18.4199" y="-185.722" width="1558.08" height="1558.08" filterUnits="userSpaceOnUse" color-interpolation-filters="sRGB">
<feFlood flood-opacity="0" result="BackgroundImageFix"/>
<feBlend mode="normal" in="SourceGraphic" in2="BackgroundImageFix" result="shape"/>
<feGaussianBlur stdDeviation="140.208" result="effect1_foregroundBlur_4_761"/>
</filter>
<filter id="filter1_f_4_761" x="464.049" y="110.784" width="1175.7" height="1289.79" filterUnits="userSpaceOnUse" color-interpolation-filters="sRGB">
<feFlood flood-opacity="0" result="BackgroundImageFix"/>
<feBlend mode="normal" in="SourceGraphic" in2="BackgroundImageFix" result="shape"/>
<feGaussianBlur stdDeviation="105.156" result="effect1_foregroundBlur_4_761"/>
</filter>
<linearGradient id="paint0_linear_4_761" x1="401.917" y1="163.414" x2="1097.92" y2="1091.95" gradientUnits="userSpaceOnUse">
<stop stop-color="#6100FF"/>
<stop offset="1" stop-color="#00FFFF" stop-opacity="0"/>
</linearGradient>
<linearGradient id="paint1_linear_4_761" x1="1429.44" y1="759.762" x2="425.809" y2="754.319" gradientUnits="userSpaceOnUse">
<stop stop-color="#0075FF"/>
<stop offset="1" stop-color="#00A3FF" stop-opacity="0"/>
</linearGradient>
</defs>
</svg>
