<svg width="1295" height="370" viewBox="0 0 1295 370" fill="none" xmlns="http://www.w3.org/2000/svg">
<path d="M64.4706 333.731C56.2177 330.024 46.1075 321.187 44.0719 308.996C41.7972 281.281 58.0462 269.04 69.6334 256.993C90.2442 238.439 113.638 225.644 137.949 215.373C162.768 205.163 188.746 197.655 216.189 195.762C233.444 195.435 253.018 193.614 270.395 210.036C277.065 217.029 278.556 228.403 276.269 236.294C274.165 244.458 270.091 250.889 265.723 256.63C255.36 269.842 242.701 279.653 229.58 288.344C222.786 292.792 215.803 296.848 208.664 300.59C207.09 301.414 205.236 301.575 203.521 301.056C201.804 300.537 200.366 299.379 199.513 297.821C198.66 296.263 198.46 294.428 198.947 292.702C199.435 290.977 200.57 289.502 202.112 288.62C208.756 284.815 215.209 280.735 221.404 276.34C233.345 267.824 244.667 258.098 252.704 246.945C259.756 237.449 262.608 226.329 257.329 221.961C250.149 214.759 232.583 213.676 217.735 215.234C193.614 217.772 169.475 225.607 146.936 235.915C124.871 246.157 103.599 259.143 87.0146 275.321C77.0003 284.634 68.5957 299.022 70.569 303.739C70.1205 306.2 79.5864 311.28 91.2659 311.534C104.756 312.243 119.593 309.876 133.933 306.198C141.048 304.362 148.103 302.162 155.08 299.659C158.975 298.264 163.237 298.49 166.943 300.329C170.648 302.166 173.493 305.466 174.838 309.459C176.184 313.453 175.915 317.802 174.076 321.506C172.239 325.213 168.982 327.971 165.038 329.218C157.122 331.729 149.099 333.908 140.92 335.697C124.347 339.236 107.311 341.578 89.0311 339.984C81.1823 339.195 73.0061 337.758 64.4706 333.731Z" fill="white"/>
<path d="M166.377 271.089C130.488 271.089 101.394 241.996 101.394 206.107C101.394 170.218 130.488 141.124 166.377 141.124C202.266 141.124 231.36 170.218 231.36 206.107C231.36 241.996 202.266 271.089 166.377 271.089Z" fill="#A167FE"/>
<path d="M328.095 239.576C306.977 265.848 279.507 261.197 258.458 259.506C222.04 254.297 189.232 240.528 158.32 223.936C125.531 205.949 94.8552 184.063 68.8127 156.704C51.9638 137.845 33.6721 117.347 31.9367 87.3489C31.9051 80.0535 34.0808 71.9877 38.9483 65.789C48.1692 54.1767 61.7844 50.8724 73.5578 49.6104C75.3287 49.438 77.1089 49.9843 78.5045 51.1116C79.9003 52.2399 80.7974 53.8569 81.0003 55.6243C81.2031 57.3916 80.6957 59.1698 79.5919 60.585C78.4879 61.9991 76.8779 62.9345 75.1139 63.1678C65.0556 64.4583 55.3309 68.1266 50.7738 74.6605C48.2746 78.1444 47.1821 82.4165 47.3368 87.2018C48.7475 107.495 65.2736 127.717 81.652 144.207C106.714 168.836 136.757 188.838 168.344 204.769C197.984 219.489 229.816 231.223 261.355 234.56C279.537 236.732 300.908 233.422 305.283 224.752C310.45 217.746 303.837 199.387 293.305 185.518C275.227 161.007 249.441 140.403 222.459 123.185C201.757 110.097 179.75 98.917 157.082 90.2525C147.196 86.4854 137.174 83.2123 127.136 80.6183C122.464 79.4066 118.499 76.3907 116.125 72.1882C113.75 67.9884 113.161 62.946 114.475 58.2164C115.789 53.4867 118.895 49.4707 123.096 47.0978C127.297 44.7222 132.25 44.1842 136.877 45.5561C148.32 48.9353 159.416 52.9957 170.228 57.5422C194.998 67.9982 218.379 80.9242 240.411 95.9174C269.165 115.802 296.34 138.491 317.299 168.834C327.946 186.312 344.352 210.304 328.095 239.576Z" fill="white"/>
<path d="M1101.99 264.5C1097.45 264.5 1093.63 263.474 1090.55 261.42C1087.47 259.22 1085.57 256.287 1084.83 252.62C1084.1 248.807 1084.76 244.554 1086.81 239.86L1141.59 121.94C1144.23 116.22 1147.46 112.04 1151.27 109.4C1155.23 106.76 1159.71 105.44 1164.69 105.44C1169.68 105.44 1174.01 106.76 1177.67 109.4C1181.49 112.04 1184.79 116.22 1187.57 121.94L1242.35 239.86C1244.7 244.554 1245.51 248.807 1244.77 252.62C1244.19 256.434 1242.35 259.367 1239.27 261.42C1236.34 263.474 1232.67 264.5 1228.27 264.5C1222.41 264.5 1217.86 263.18 1214.63 260.54C1211.55 257.9 1208.77 253.647 1206.27 247.78L1194.39 219.84L1209.79 231.06H1119.15L1134.77 219.84L1122.89 247.78C1120.25 253.647 1117.54 257.9 1114.75 260.54C1111.97 263.18 1107.71 264.5 1101.99 264.5ZM1164.25 149.66L1138.73 210.6L1132.57 200.04H1196.59L1190.43 210.6L1164.69 149.66H1164.25Z" fill="white"/>
<path d="M1009.58 264.94C991.833 264.94 976.726 261.64 964.259 255.04C951.939 248.44 942.553 239.2 936.099 227.32C929.646 215.44 926.419 201.58 926.419 185.74C926.419 173.42 928.326 162.347 932.139 152.52C936.099 142.547 941.746 134.04 949.079 127C956.413 119.813 965.359 114.387 975.919 110.72C986.626 106.907 998.726 105 1012.22 105C1019.55 105 1027.03 105.733 1034.66 107.2C1042.29 108.52 1049.77 111.087 1057.1 114.9C1060.91 116.66 1063.48 119.153 1064.8 122.38C1066.27 125.46 1066.71 128.76 1066.12 132.28C1065.68 135.653 1064.43 138.807 1062.38 141.74C1060.47 144.527 1057.83 146.433 1054.46 147.46C1051.09 148.34 1047.27 147.827 1043.02 145.92C1038.62 143.867 1033.85 142.327 1028.72 141.3C1023.59 140.127 1018.16 139.54 1012.44 139.54C1002.61 139.54 994.399 141.3 987.799 144.82C981.346 148.34 976.506 153.547 973.279 160.44C970.053 167.333 968.439 175.767 968.439 185.74C968.439 200.7 972.106 211.993 979.439 219.62C986.773 227.247 997.626 231.06 1012 231.06C1016.4 231.06 1021.17 230.62 1026.3 229.74C1031.58 228.86 1036.86 227.613 1042.14 226L1034.66 241.18V203.56H1019.26C1014.27 203.56 1010.39 202.313 1007.6 199.82C1004.96 197.327 1003.64 193.807 1003.64 189.26C1003.64 184.713 1004.96 181.267 1007.6 178.92C1010.39 176.427 1014.27 175.18 1019.26 175.18H1051.82C1056.95 175.18 1060.84 176.573 1063.48 179.36C1066.27 182 1067.66 185.887 1067.66 191.02V239.64C1067.66 244.04 1066.71 247.78 1064.8 250.86C1063.04 253.94 1060.18 256.14 1056.22 257.46C1049.33 259.807 1041.85 261.64 1033.78 262.96C1025.71 264.28 1017.65 264.94 1009.58 264.94Z" fill="white"/>
<path d="M815.933 262.52C809.04 262.52 803.76 260.76 800.093 257.24C796.573 253.573 794.813 248.367 794.813 241.62V128.32C794.813 121.573 796.573 116.44 800.093 112.92C803.76 109.253 809.04 107.42 815.933 107.42H890.513C895.793 107.42 899.753 108.74 902.393 111.38C905.033 114.02 906.353 117.833 906.353 122.82C906.353 127.953 905.033 131.913 902.393 134.7C899.753 137.34 895.793 138.66 890.513 138.66H833.533V168.14H885.673C890.806 168.14 894.693 169.46 897.333 172.1C900.12 174.74 901.513 178.627 901.513 183.76C901.513 188.893 900.12 192.78 897.333 195.42C894.693 198.06 890.806 199.38 885.673 199.38H833.533V231.28H890.513C895.793 231.28 899.753 232.673 902.393 235.46C905.033 238.1 906.353 241.913 906.353 246.9C906.353 252.033 905.033 255.92 902.393 258.56C899.753 261.2 895.793 262.52 890.513 262.52H815.933Z" fill="white"/>
<path d="M619.079 264.5C613.213 264.5 608.666 262.887 605.439 259.66C602.359 256.434 600.819 251.887 600.819 246.02V123.92C600.819 117.907 602.506 113.36 605.879 110.28C609.253 107.054 614.019 105.44 620.179 105.44C625.313 105.44 629.346 106.467 632.279 108.52C635.359 110.427 638.146 113.654 640.639 118.2L687.939 203.12H680.239L727.319 118.2C729.959 113.654 732.746 110.427 735.679 108.52C738.759 106.467 742.866 105.44 747.999 105.44C753.866 105.44 758.339 107.054 761.419 110.28C764.646 113.36 766.259 117.907 766.259 123.92V246.02C766.259 251.887 764.719 256.434 761.639 259.66C758.559 262.887 754.013 264.5 747.999 264.5C742.133 264.5 737.586 262.887 734.359 259.66C731.279 256.434 729.739 251.887 729.739 246.02V170.34H734.359L698.939 231.94C696.886 235.167 694.686 237.587 692.339 239.2C690.139 240.814 687.133 241.62 683.319 241.62C679.653 241.62 676.646 240.814 674.299 239.2C671.953 237.587 669.826 235.167 667.919 231.94L632.279 170.12H637.339V246.02C637.339 251.887 635.799 256.434 632.719 259.66C629.639 262.887 625.093 264.5 619.079 264.5Z" fill="white"/>
<path d="M497.718 264.94C482.025 264.94 468.238 261.64 456.358 255.04C444.478 248.293 435.238 238.907 428.638 226.88C422.185 214.853 418.958 200.847 418.958 184.86C418.958 172.833 420.792 161.907 424.458 152.08C428.272 142.253 433.625 133.82 440.518 126.78C447.558 119.74 455.918 114.387 465.598 110.72C475.278 106.907 485.985 105 497.718 105C513.412 105 527.125 108.3 538.858 114.9C550.739 121.5 559.979 130.813 566.579 142.84C573.179 154.72 576.479 168.727 576.479 184.86C576.479 196.887 574.572 207.813 570.759 217.64C567.092 227.467 561.739 235.973 554.699 243.16C547.805 250.2 539.518 255.627 529.838 259.44C520.158 263.107 509.452 264.94 497.718 264.94ZM497.718 231.06C505.492 231.06 512.092 229.227 517.518 225.56C522.945 221.893 527.125 216.613 530.058 209.72C532.992 202.827 534.459 194.54 534.459 184.86C534.459 170.34 531.232 159.047 524.778 150.98C518.325 142.913 509.305 138.88 497.718 138.88C490.092 138.88 483.492 140.713 477.918 144.38C472.492 147.9 468.312 153.107 465.378 160C462.445 166.747 460.979 175.033 460.979 184.86C460.979 199.38 464.205 210.747 470.659 218.96C477.112 227.027 486.132 231.06 497.718 231.06Z" fill="white"/>
</svg>
