<svg width="1296" height="370" viewBox="0 0 1296 370" fill="none" xmlns="http://www.w3.org/2000/svg">
<path d="M333.731 305.008C330.024 313.261 321.187 323.371 308.996 325.407C281.281 327.682 269.04 311.433 256.993 299.846C238.439 279.235 225.644 255.841 215.373 231.53C205.163 206.711 197.655 180.733 195.762 153.29C195.435 136.035 193.614 116.461 210.036 99.0843C217.029 92.4141 228.403 90.9228 236.294 93.2096C244.458 95.3136 250.889 99.3877 256.63 103.756C269.842 114.119 279.653 126.778 288.344 139.899C292.792 146.693 296.848 153.676 300.59 160.815C301.414 162.389 301.575 164.243 301.056 165.958C300.537 167.675 299.379 169.113 297.821 169.966C296.263 170.819 294.428 171.019 292.702 170.532C290.977 170.044 289.502 168.909 288.62 167.367C284.815 160.723 280.735 154.27 276.34 148.075C267.824 136.134 258.098 124.812 246.945 116.775C237.449 109.723 226.329 106.871 221.961 112.15C214.759 119.33 213.676 136.896 215.234 151.744C217.772 175.865 225.607 200.004 235.915 222.543C246.157 244.608 259.143 265.88 275.321 282.464C284.634 292.479 299.022 300.883 303.739 298.91C306.2 299.358 311.28 289.893 311.534 278.213C312.243 264.723 309.876 249.886 306.198 235.546C304.362 228.431 302.162 221.376 299.659 214.399C298.264 210.504 298.49 206.242 300.329 202.536C302.166 198.831 305.465 195.986 309.459 194.641C313.453 193.295 317.802 193.564 321.506 195.403C325.213 197.24 327.971 200.497 329.218 204.441C331.729 212.357 333.908 220.38 335.697 228.559C339.236 245.132 341.578 262.168 339.984 280.448C339.195 288.297 337.758 296.473 333.731 305.008Z" fill="white"/>
<path d="M271.089 203.103C271.089 238.992 241.996 268.086 206.107 268.086C170.218 268.086 141.124 238.992 141.124 203.103C141.124 167.214 170.218 138.12 206.107 138.12C241.996 138.12 271.089 167.214 271.089 203.103Z" fill="#721BFF"/>
<path d="M239.576 41.3836C265.848 62.5019 261.197 89.9724 259.506 111.021C254.297 147.439 240.527 180.247 223.936 211.159C205.949 243.948 184.063 274.624 156.704 300.666C137.845 317.515 117.347 335.807 87.3487 337.542C80.0532 337.574 71.9875 335.398 65.7887 330.531C54.1765 321.31 50.8722 307.695 49.6102 295.921C49.4378 294.15 49.9841 292.37 51.1113 290.974C52.2396 289.579 53.8567 288.682 55.624 288.479C57.3914 288.276 59.1695 288.783 60.5847 289.887C61.9989 290.991 62.9343 292.601 63.1676 294.365C64.4581 304.423 68.1264 314.148 74.6603 318.705C78.1442 321.204 82.4163 322.297 87.2016 322.142C107.495 320.732 127.716 304.205 144.206 287.827C168.835 262.765 188.838 232.722 204.768 201.135C219.488 171.495 231.223 139.663 234.56 108.124C236.732 89.942 233.422 68.571 224.751 64.1959C217.746 59.0289 199.387 65.6425 185.517 76.1743C161.007 94.252 140.403 120.038 123.185 147.02C110.097 167.722 98.9167 189.729 90.2523 212.397C86.4851 222.283 83.212 232.305 80.6181 242.343C79.4064 247.015 76.3905 250.98 72.188 253.354C67.9882 255.729 62.9457 256.318 58.2161 255.004C53.4865 253.69 49.4705 250.584 47.0976 246.383C44.722 242.182 44.184 237.229 45.5559 232.602C48.935 221.159 52.9954 210.063 57.542 199.251C67.998 174.481 80.924 151.1 95.9171 129.068C115.802 100.314 138.491 73.1388 168.834 52.1804C186.311 41.5326 210.304 25.127 239.576 41.3836Z" fill="white"/>
<path d="M1103.04 264.5C1098.49 264.5 1094.68 263.474 1091.6 261.42C1088.52 259.22 1086.61 256.287 1085.88 252.62C1085.14 248.807 1085.8 244.554 1087.86 239.86L1142.64 121.94C1145.28 116.22 1148.5 112.04 1152.32 109.4C1156.28 106.76 1160.75 105.44 1165.74 105.44C1170.72 105.44 1175.05 106.76 1178.72 109.4C1182.53 112.04 1185.83 116.22 1188.62 121.94L1243.4 239.86C1245.74 244.554 1246.55 248.807 1245.82 252.62C1245.23 256.434 1243.4 259.367 1240.32 261.42C1237.38 263.474 1233.72 264.5 1229.32 264.5C1223.45 264.5 1218.9 263.18 1215.68 260.54C1212.6 257.9 1209.81 253.647 1207.32 247.78L1195.44 219.84L1210.84 231.06H1120.2L1135.82 219.84L1123.94 247.78C1121.3 253.647 1118.58 257.9 1115.8 260.54C1113.01 263.18 1108.76 264.5 1103.04 264.5ZM1165.3 149.66L1139.78 210.6L1133.62 200.04H1197.64L1191.48 210.6L1165.74 149.66H1165.3Z" fill="white"/>
<path d="M1010.62 264.94C992.874 264.94 977.768 261.64 965.301 255.04C952.981 248.44 943.594 239.2 937.141 227.32C930.688 215.44 927.461 201.58 927.461 185.74C927.461 173.42 929.368 162.347 933.181 152.52C937.141 142.547 942.788 134.04 950.121 127C957.454 119.813 966.401 114.387 976.961 110.72C987.668 106.907 999.768 105 1013.26 105C1020.59 105 1028.07 105.733 1035.7 107.2C1043.33 108.52 1050.81 111.087 1058.14 114.9C1061.95 116.66 1064.52 119.153 1065.84 122.38C1067.31 125.46 1067.75 128.76 1067.16 132.28C1066.72 135.653 1065.47 138.807 1063.42 141.74C1061.51 144.527 1058.87 146.433 1055.5 147.46C1052.13 148.34 1048.31 147.827 1044.06 145.92C1039.66 143.867 1034.89 142.327 1029.76 141.3C1024.63 140.127 1019.2 139.54 1013.48 139.54C1003.65 139.54 995.441 141.3 988.841 144.82C982.388 148.34 977.548 153.547 974.321 160.44C971.094 167.333 969.481 175.767 969.481 185.74C969.481 200.7 973.148 211.993 980.481 219.62C987.814 227.247 998.668 231.06 1013.04 231.06C1017.44 231.06 1022.21 230.62 1027.34 229.74C1032.62 228.86 1037.9 227.613 1043.18 226L1035.7 241.18V203.56H1020.3C1015.31 203.56 1011.43 202.313 1008.64 199.82C1006 197.327 1004.68 193.807 1004.68 189.26C1004.68 184.713 1006 181.267 1008.64 178.92C1011.43 176.427 1015.31 175.18 1020.3 175.18H1052.86C1057.99 175.18 1061.88 176.573 1064.52 179.36C1067.31 182 1068.7 185.887 1068.7 191.02V239.64C1068.7 244.04 1067.75 247.78 1065.84 250.86C1064.08 253.94 1061.22 256.14 1057.26 257.46C1050.37 259.807 1042.89 261.64 1034.82 262.96C1026.75 264.28 1018.69 264.94 1010.62 264.94Z" fill="white"/>
<path d="M816.975 262.52C810.081 262.52 804.801 260.76 801.135 257.24C797.615 253.573 795.854 248.367 795.854 241.62V128.32C795.854 121.573 797.615 116.44 801.135 112.92C804.801 109.253 810.081 107.42 816.975 107.42H891.555C896.835 107.42 900.795 108.74 903.435 111.38C906.075 114.02 907.395 117.833 907.395 122.82C907.395 127.953 906.075 131.913 903.435 134.7C900.795 137.34 896.835 138.66 891.555 138.66H834.574V168.14H886.715C891.848 168.14 895.735 169.46 898.375 172.1C901.161 174.74 902.555 178.627 902.555 183.76C902.555 188.893 901.161 192.78 898.375 195.42C895.735 198.06 891.848 199.38 886.715 199.38H834.574V231.28H891.555C896.835 231.28 900.795 232.673 903.435 235.46C906.075 238.1 907.395 241.913 907.395 246.9C907.395 252.033 906.075 255.92 903.435 258.56C900.795 261.2 896.835 262.52 891.555 262.52H816.975Z" fill="white"/>
<path d="M620.121 264.5C614.254 264.5 609.708 262.887 606.481 259.66C603.401 256.434 601.861 251.887 601.861 246.02V123.92C601.861 117.907 603.548 113.36 606.921 110.28C610.294 107.054 615.061 105.44 621.221 105.44C626.354 105.44 630.387 106.467 633.321 108.52C636.401 110.427 639.187 113.654 641.681 118.2L688.981 203.12H681.281L728.361 118.2C731.001 113.654 733.788 110.427 736.721 108.52C739.801 106.467 743.908 105.44 749.041 105.44C754.908 105.44 759.381 107.054 762.461 110.28C765.688 113.36 767.301 117.907 767.301 123.92V246.02C767.301 251.887 765.761 256.434 762.681 259.66C759.601 262.887 755.054 264.5 749.041 264.5C743.174 264.5 738.628 262.887 735.401 259.66C732.321 256.434 730.781 251.887 730.781 246.02V170.34H735.401L699.981 231.94C697.928 235.167 695.728 237.587 693.381 239.2C691.181 240.814 688.174 241.62 684.361 241.62C680.694 241.62 677.688 240.814 675.341 239.2C672.994 237.587 670.867 235.167 668.961 231.94L633.321 170.12H638.381V246.02C638.381 251.887 636.841 256.434 633.761 259.66C630.681 262.887 626.134 264.5 620.121 264.5Z" fill="white"/>
<path d="M498.76 264.94C483.067 264.94 469.28 261.64 457.4 255.04C445.52 248.293 436.28 238.907 429.68 226.88C423.227 214.853 420 200.847 420 184.86C420 172.833 421.833 161.907 425.5 152.08C429.313 142.253 434.667 133.82 441.56 126.78C448.6 119.74 456.96 114.387 466.64 110.72C476.32 106.907 487.027 105 498.76 105C514.453 105 528.167 108.3 539.9 114.9C551.78 121.5 561.02 130.813 567.62 142.84C574.22 154.72 577.52 168.727 577.52 184.86C577.52 196.887 575.613 207.813 571.8 217.64C568.133 227.467 562.78 235.973 555.74 243.16C548.847 250.2 540.56 255.627 530.88 259.44C521.2 263.107 510.493 264.94 498.76 264.94ZM498.76 231.06C506.533 231.06 513.133 229.227 518.56 225.56C523.987 221.893 528.167 216.613 531.1 209.72C534.033 202.827 535.5 194.54 535.5 184.86C535.5 170.34 532.273 159.047 525.82 150.98C519.367 142.913 510.347 138.88 498.76 138.88C491.133 138.88 484.533 140.713 478.96 144.38C473.533 147.9 469.353 153.107 466.42 160C463.487 166.747 462.02 175.033 462.02 184.86C462.02 199.38 465.247 210.747 471.7 218.96C478.153 227.027 487.173 231.06 498.76 231.06Z" fill="white"/>
</svg>
