<svg width="200" height="57" viewBox="0 0 200 57" fill="none" xmlns="http://www.w3.org/2000/svg">
<path d="M36.2654 12.3243C35.7541 12.3243 35.3395 12.7382 35.3395 13.2486V16.0216C35.3395 16.5321 34.925 16.9459 34.4136 16.9459H31.7901C31.2787 16.9459 30.8642 17.3598 30.8642 17.8703V20.6432C30.8642 21.1537 31.2787 21.5676 31.7901 21.5676H34.5679C35.0793 21.5676 35.4938 21.1537 35.4938 20.6432V17.8703C35.4938 17.3598 35.9084 16.9459 36.4198 16.9459H39.0432C39.5546 16.9459 39.9691 16.5321 39.9691 16.0216V13.2486C39.9691 12.7382 39.5546 12.3243 39.0432 12.3243H36.2654ZM12.3457 39.1297C12.3457 39.6402 12.7602 40.054 13.2716 40.054H16.0494C16.5608 40.054 16.9753 39.6402 16.9753 39.1297V36.3568C16.9753 35.8463 16.5608 35.4324 16.0494 35.4324H13.2716C12.7602 35.4324 12.3457 35.8463 12.3457 36.3568V39.1297ZM30.8642 39.1297C30.8642 39.6402 31.2787 40.054 31.7901 40.054H34.5679C35.0793 40.054 35.4938 39.6402 35.4938 39.1297V36.3568C35.4938 35.8463 35.0793 35.4324 34.5679 35.4324H31.7901C31.2787 35.4324 30.8642 35.8463 30.8642 36.3568V39.1297ZM26.2346 29.8865C26.2346 30.397 26.6491 30.8108 27.1605 30.8108H29.9383C30.4496 30.8108 30.8642 30.397 30.8642 29.8865V27.1135C30.8642 26.603 30.4496 26.1892 29.9383 26.1892H27.1605C26.6491 26.1892 26.2346 26.603 26.2346 27.1135V29.8865ZM35.4938 29.8865C35.4938 30.397 35.9084 30.8108 36.4198 30.8108H39.1975C39.7089 30.8108 40.1235 30.397 40.1235 29.8865V27.1135C40.1235 26.603 39.7089 26.1892 39.1975 26.1892H36.4198C35.9084 26.1892 35.4938 26.603 35.4938 27.1135V29.8865ZM16.9753 25.2649C16.9753 25.7753 17.3899 26.1892 17.9012 26.1892H20.679C21.1904 26.1892 21.6049 25.7753 21.6049 25.2649V22.4919C21.6049 21.9814 21.1904 21.5676 20.679 21.5676H17.9012C17.3899 21.5676 16.9753 21.9814 16.9753 22.4919V25.2649ZM26.2346 16.0216C26.2346 16.5321 26.6491 16.9459 27.1605 16.9459H29.784C30.2953 16.9459 30.7099 16.5321 30.7099 16.0216V13.2486C30.7099 12.7382 30.2953 12.3243 29.784 12.3243H27.1605C26.6491 12.3243 26.2346 12.7382 26.2346 13.2486V16.0216ZM57.0988 16.0216C57.0988 16.5321 56.6842 16.9459 56.1728 16.9459H53.3951C52.8837 16.9459 52.4691 16.5321 52.4691 16.0216V13.2486C52.4691 12.7382 52.8837 12.3243 53.3951 12.3243H56.1728C56.6842 12.3243 57.0988 12.7382 57.0988 13.2486V16.0216ZM49.3827 11.4C49.3827 11.9105 48.9682 12.3243 48.4568 12.3243H45.679C45.1676 12.3243 44.7531 11.9105 44.7531 11.4V8.62702C44.7531 8.11653 45.1676 7.7027 45.679 7.7027H48.4568C48.9682 7.7027 49.3827 8.11653 49.3827 8.62702V11.4ZM44.5988 16.0216C44.5988 16.5321 44.1842 16.9459 43.6728 16.9459H41.0494C40.538 16.9459 40.1235 17.3598 40.1235 17.8703V20.6432C40.1235 21.1537 40.538 21.5676 41.0494 21.5676H43.8272C44.3385 21.5676 44.7531 21.1537 44.7531 20.6432V17.7162C44.7531 17.2057 45.1676 16.7919 45.679 16.7919H48.4568C48.9682 16.7919 49.3827 17.2057 49.3827 17.7162V21.0773C49.3827 21.3481 49.1628 21.5676 48.8916 21.5676C48.5527 21.5676 48.3154 21.9023 48.4175 22.225C48.7191 23.1776 48.9538 24.16 49.1162 25.1665C49.2039 25.7102 48.7729 26.1892 48.2213 26.1892H45.679C45.1676 26.1892 44.7531 26.603 44.7531 27.1135V29.8865C44.7531 30.397 45.1676 30.8108 45.679 30.8108H48.2213C48.7729 30.8108 49.2039 31.2901 49.1161 31.8337C47.5181 41.735 38.9186 49.2973 28.5494 49.2973C17.0435 49.2973 7.71605 39.986 7.71605 28.5C7.71605 17.014 17.0435 7.7027 28.5494 7.7027C33.3929 7.7027 37.8503 9.35285 41.3885 12.1205C41.5554 12.2511 41.7605 12.3243 41.9725 12.3243H43.6728C44.1842 12.3243 44.5988 12.7382 44.5988 13.2486V16.0216Z" fill="#6100FF"/>
<path d="M170.222 40.7473C169.52 40.7473 168.932 40.5891 168.456 40.2728C167.981 39.9339 167.687 39.482 167.574 38.9171C167.46 38.3297 167.562 37.6744 167.879 36.9514L176.333 18.7854C176.74 17.9042 177.238 17.2602 177.827 16.8535C178.438 16.4468 179.128 16.2435 179.898 16.2435C180.667 16.2435 181.335 16.4468 181.901 16.8535C182.489 17.2602 182.998 17.9042 183.428 18.7854L191.882 36.9514C192.244 37.6744 192.369 38.3297 192.256 38.9171C192.165 39.5046 191.882 39.9565 191.407 40.2728C190.954 40.5891 190.388 40.7473 189.709 40.7473C188.804 40.7473 188.102 40.544 187.604 40.1373C187.129 39.7306 186.699 39.0753 186.314 38.1715L184.481 33.8673L186.857 35.5957H172.87L175.28 33.8673L173.447 38.1715C173.04 39.0753 172.621 39.7306 172.191 40.1373C171.761 40.544 171.104 40.7473 170.222 40.7473ZM179.83 23.0557L175.891 32.4438L174.941 30.817H184.82L183.87 32.4438L179.898 23.0557H179.83Z" fill="white"/>
<path d="M155.96 40.8151C153.221 40.8151 150.89 40.3067 148.966 39.2899C147.065 38.2732 145.616 36.8497 144.621 35.0196C143.625 33.1894 143.127 31.0542 143.127 28.614C143.127 26.716 143.421 25.0101 144.009 23.4963C144.621 21.9599 145.492 20.6494 146.624 19.5648C147.755 18.4577 149.136 17.6217 150.766 17.0568C152.418 16.4694 154.285 16.1757 156.367 16.1757C157.499 16.1757 158.653 16.2886 159.83 16.5146C161.007 16.7179 162.162 17.1133 163.293 17.7008C163.882 17.9719 164.278 18.356 164.482 18.8531C164.708 19.3276 164.776 19.836 164.685 20.3783C164.617 20.8979 164.425 21.3837 164.108 21.8356C163.814 22.2649 163.407 22.5586 162.886 22.7168C162.365 22.8524 161.777 22.7733 161.121 22.4796C160.441 22.1632 159.706 21.926 158.914 21.7678C158.122 21.5871 157.284 21.4967 156.401 21.4967C154.885 21.4967 153.617 21.7678 152.599 22.3101C151.603 22.8524 150.856 23.6545 150.358 24.7164C149.86 25.7784 149.611 27.0776 149.611 28.614C149.611 30.9186 150.177 32.6584 151.309 33.8333C152.44 35.0083 154.115 35.5957 156.333 35.5957C157.012 35.5957 157.748 35.5279 158.54 35.3924C159.355 35.2568 160.17 35.0647 160.985 34.8162L159.83 37.1547V31.3592H157.454C156.684 31.3592 156.084 31.1672 155.654 30.7831C155.247 30.399 155.043 29.8567 155.043 29.1563C155.043 28.4558 155.247 27.9248 155.654 27.5633C156.084 27.1792 156.684 26.9872 157.454 26.9872H162.479C163.271 26.9872 163.871 27.2018 164.278 27.6311C164.708 28.0378 164.923 28.6366 164.923 29.4274V36.9175C164.923 37.5953 164.776 38.1715 164.482 38.646C164.21 39.1205 163.769 39.4594 163.158 39.6627C162.094 40.0243 160.939 40.3067 159.695 40.51C158.45 40.7134 157.205 40.8151 155.96 40.8151Z" fill="white"/>
<path d="M126.076 40.4422C125.013 40.4422 124.198 40.1711 123.632 39.6288C123.089 39.064 122.817 38.2619 122.817 37.2225V19.7682C122.817 18.7288 123.089 17.938 123.632 17.3958C124.198 16.8309 125.013 16.5485 126.076 16.5485H137.586C138.4 16.5485 139.011 16.7518 139.419 17.1585C139.826 17.5652 140.03 18.1527 140.03 18.9209C140.03 19.7117 139.826 20.3218 139.419 20.7511C139.011 21.1578 138.4 21.3611 137.586 21.3611H128.792V25.9026H136.839C137.631 25.9026 138.231 26.106 138.638 26.5127C139.068 26.9194 139.283 27.5181 139.283 28.3089C139.283 29.0998 139.068 29.6985 138.638 30.1052C138.231 30.5119 137.631 30.7153 136.839 30.7153H128.792V35.6296H137.586C138.4 35.6296 139.011 35.8442 139.419 36.2735C139.826 36.6802 140.03 37.2677 140.03 38.0359C140.03 38.8267 139.826 39.4255 139.419 39.8322C139.011 40.2389 138.4 40.4422 137.586 40.4422H126.076Z" fill="white"/>
<path d="M95.6977 40.7473C94.7923 40.7473 94.0907 40.4988 93.5928 40.0017C93.1174 39.5046 92.8798 38.8042 92.8798 37.9004V19.0904C92.8798 18.164 93.1401 17.4636 93.6607 16.9891C94.1812 16.492 94.9168 16.2435 95.8674 16.2435C96.6596 16.2435 97.2821 16.4016 97.7347 16.718C98.21 17.0117 98.6401 17.5088 99.0249 18.2092L106.324 31.2915H105.136L112.401 18.2092C112.809 17.5088 113.239 17.0117 113.692 16.718C114.167 16.4016 114.801 16.2435 115.593 16.2435C116.498 16.2435 117.188 16.492 117.664 16.9891C118.162 17.4636 118.411 18.164 118.411 19.0904V37.9004C118.411 38.8042 118.173 39.5046 117.698 40.0017C117.222 40.4988 116.521 40.7473 115.593 40.7473C114.687 40.7473 113.986 40.4988 113.488 40.0017C113.013 39.5046 112.775 38.8042 112.775 37.9004V26.2416H113.488L108.022 35.7313C107.705 36.2284 107.365 36.6012 107.003 36.8497C106.664 37.0983 106.2 37.2226 105.611 37.2226C105.045 37.2226 104.581 37.0983 104.219 36.8497C103.857 36.6012 103.529 36.2284 103.235 35.7313L97.7347 26.2077H98.5156V37.9004C98.5156 38.8042 98.2779 39.5046 97.8026 40.0017C97.3273 40.4988 96.6257 40.7473 95.6977 40.7473Z" fill="white"/>
<path d="M76.9691 40.8151C74.5473 40.8151 72.4198 40.3067 70.5864 39.2899C68.7531 38.2506 67.3272 36.8045 66.3086 34.9518C65.3128 33.099 64.8148 30.9412 64.8148 28.4784C64.8148 26.6257 65.0977 24.9424 65.6636 23.4285C66.2521 21.9147 67.0782 20.6155 68.142 19.531C69.2284 18.4464 70.5185 17.6217 72.0124 17.0568C73.5062 16.4694 75.1584 16.1757 76.9691 16.1757C79.391 16.1757 81.5072 16.684 83.3179 17.7008C85.1512 18.7176 86.5772 20.1523 87.5957 22.0051C88.6142 23.8352 89.1235 25.993 89.1235 28.4784C89.1235 30.3312 88.8292 32.0145 88.2407 33.5283C87.6749 35.0421 86.8488 36.3526 85.7624 37.4598C84.6986 38.5443 83.4198 39.3803 81.9259 39.9678C80.4321 40.5326 78.7798 40.8151 76.9691 40.8151ZM76.9691 35.5957C78.1687 35.5957 79.1872 35.3133 80.0247 34.7484C80.8621 34.1836 81.5072 33.3701 81.9599 32.3082C82.4126 31.2463 82.6389 29.9697 82.6389 28.4784C82.6389 26.2416 82.141 24.5018 81.1451 23.2591C80.1492 22.0164 78.7572 21.395 76.9691 21.395C75.7922 21.395 74.7737 21.6774 73.9136 22.2423C73.0761 22.7846 72.4311 23.5867 71.9784 24.6486C71.5257 25.688 71.2994 26.9646 71.2994 28.4784C71.2994 30.7153 71.7973 32.4664 72.7932 33.7317C73.7891 34.9744 75.1811 35.5957 76.9691 35.5957Z" fill="white"/>
</svg>
