<svg width="471" height="117" viewBox="0 0 471 117" fill="none" xmlns="http://www.w3.org/2000/svg">
<path d="M453.895 86.3202C450.391 86.3202 447.271 85.7202 444.535 84.5202C441.799 83.3202 439.639 81.6882 438.055 79.6242C436.471 77.5122 435.583 75.1602 435.391 72.5682H447.559C447.703 73.9602 448.351 75.0882 449.503 75.9522C450.655 76.8162 452.071 77.2482 453.751 77.2482C455.287 77.2482 456.463 76.9602 457.279 76.3842C458.143 75.7602 458.575 74.9682 458.575 74.0082C458.575 72.8562 457.975 72.0162 456.775 71.4882C455.575 70.9122 453.631 70.2882 450.943 69.6162C448.063 68.9442 445.663 68.2482 443.743 67.5282C441.823 66.7602 440.167 65.5842 438.775 64.0002C437.383 62.3682 436.687 60.1842 436.687 57.4482C436.687 55.1442 437.311 53.0562 438.559 51.1842C439.855 49.2642 441.727 47.7522 444.175 46.6482C446.671 45.5442 449.623 44.9922 453.031 44.9922C458.071 44.9922 462.031 46.2402 464.911 48.7362C467.839 51.2322 469.519 54.5442 469.951 58.6722H458.575C458.383 57.2802 457.759 56.1762 456.703 55.3602C455.695 54.5442 454.351 54.1362 452.671 54.1362C451.231 54.1362 450.127 54.4242 449.359 55.0002C448.591 55.5282 448.207 56.2722 448.207 57.2322C448.207 58.3842 448.807 59.2482 450.007 59.8242C451.255 60.4002 453.175 60.9762 455.767 61.5522C458.743 62.3202 461.167 63.0882 463.039 63.8562C464.911 64.5762 466.543 65.7762 467.935 67.4562C469.375 69.0882 470.119 71.2962 470.167 74.0802C470.167 76.4322 469.495 78.5442 468.151 80.4162C466.855 82.2402 464.959 83.6802 462.463 84.7362C460.015 85.7922 457.159 86.3202 453.895 86.3202Z" fill="white"/>
<path d="M417.595 85.7448L405.355 68.8968V85.7448H393.043V32.4648H405.355V61.9128L417.523 45.5688H432.715L416.011 65.7288L432.859 85.7448H417.595Z" fill="white"/>
<path d="M365.486 86.3202C361.55 86.3202 357.998 85.4802 354.83 83.8002C351.71 82.1202 349.238 79.7202 347.414 76.6002C345.638 73.4802 344.75 69.8322 344.75 65.6562C344.75 61.5282 345.662 57.9042 347.486 54.7842C349.31 51.6162 351.806 49.1922 354.974 47.5122C358.142 45.8322 361.694 44.9922 365.63 44.9922C369.566 44.9922 373.118 45.8322 376.286 47.5122C379.454 49.1922 381.95 51.6162 383.774 54.7842C385.598 57.9042 386.51 61.5282 386.51 65.6562C386.51 69.7842 385.574 73.4322 383.702 76.6002C381.878 79.7202 379.358 82.1202 376.142 83.8002C372.974 85.4802 369.422 86.3202 365.486 86.3202ZM365.486 75.6642C367.838 75.6642 369.83 74.8002 371.462 73.0722C373.142 71.3442 373.982 68.8722 373.982 65.6562C373.982 62.4402 373.166 59.9682 371.534 58.2402C369.95 56.5122 367.982 55.6482 365.63 55.6482C363.23 55.6482 361.238 56.5122 359.654 58.2402C358.07 59.9202 357.278 62.3922 357.278 65.6562C357.278 68.8722 358.046 71.3442 359.582 73.0722C361.166 74.8002 363.134 75.6642 365.486 75.6642Z" fill="white"/>
<path d="M319.642 86.3202C315.706 86.3202 312.154 85.4802 308.986 83.8002C305.866 82.1202 303.394 79.7202 301.57 76.6002C299.794 73.4802 298.906 69.8322 298.906 65.6562C298.906 61.5282 299.818 57.9042 301.642 54.7842C303.466 51.6162 305.962 49.1922 309.13 47.5122C312.298 45.8322 315.85 44.9922 319.786 44.9922C323.722 44.9922 327.274 45.8322 330.442 47.5122C333.61 49.1922 336.106 51.6162 337.93 54.7842C339.754 57.9042 340.666 61.5282 340.666 65.6562C340.666 69.7842 339.73 73.4322 337.858 76.6002C336.034 79.7202 333.514 82.1202 330.298 83.8002C327.13 85.4802 323.578 86.3202 319.642 86.3202ZM319.642 75.6642C321.994 75.6642 323.986 74.8002 325.618 73.0722C327.298 71.3442 328.138 68.8722 328.138 65.6562C328.138 62.4402 327.322 59.9682 325.69 58.2402C324.106 56.5122 322.138 55.6482 319.786 55.6482C317.386 55.6482 315.394 56.5122 313.81 58.2402C312.226 59.9202 311.434 62.3922 311.434 65.6562C311.434 68.8722 312.202 71.3442 313.738 73.0722C315.322 74.8002 317.29 75.6642 319.642 75.6642Z" fill="white"/>
<path d="M264.8 51.2568C265.952 49.3848 267.608 47.8728 269.768 46.7208C271.928 45.5688 274.4 44.9928 277.184 44.9928C280.496 44.9928 283.496 45.8328 286.184 47.5128C288.872 49.1928 290.984 51.5928 292.52 54.7128C294.104 57.8328 294.896 61.4568 294.896 65.5848C294.896 69.7128 294.104 73.3608 292.52 76.5288C290.984 79.6488 288.872 82.0728 286.184 83.8008C283.496 85.4808 280.496 86.3208 277.184 86.3208C274.352 86.3208 271.88 85.7688 269.768 84.6648C267.656 83.5128 266 82.0008 264.8 80.1288V85.7448H252.488V32.4648H264.8V51.2568ZM282.368 65.5848C282.368 62.5128 281.504 60.1128 279.776 58.3848C278.096 56.6088 276.008 55.7208 273.512 55.7208C271.064 55.7208 268.976 56.6088 267.248 58.3848C265.568 60.1608 264.728 62.5848 264.728 65.6568C264.728 68.7288 265.568 71.1528 267.248 72.9288C268.976 74.7048 271.064 75.5928 273.512 75.5928C275.96 75.5928 278.048 74.7048 279.776 72.9288C281.504 71.1048 282.368 68.6568 282.368 65.5848Z" fill="white"/>
<path d="M234.003 52.2647C235.443 50.0567 237.243 48.3287 239.403 47.0807C241.563 45.7847 243.963 45.1367 246.603 45.1367V58.1687H243.219C240.147 58.1687 237.843 58.8407 236.307 60.1847C234.771 61.4807 234.003 63.7847 234.003 67.0967V85.7447H221.691V45.5687H234.003V52.2647Z" fill="white"/>
<path d="M206.649 41.3942C204.489 41.3942 202.713 40.7702 201.321 39.5222C199.977 38.2262 199.305 36.6422 199.305 34.7702C199.305 32.8502 199.977 31.2662 201.321 30.0182C202.713 28.7222 204.489 28.0742 206.649 28.0742C208.761 28.0742 210.489 28.7222 211.833 30.0182C213.225 31.2662 213.921 32.8502 213.921 34.7702C213.921 36.6422 213.225 38.2262 211.833 39.5222C210.489 40.7702 208.761 41.3942 206.649 41.3942ZM212.769 45.5702V85.7462H200.457V45.5702H212.769Z" fill="white"/>
<path d="M178.835 76.8191H159.971L156.947 85.7471H144.059L162.347 35.2031H176.603L194.891 85.7471H181.859L178.835 76.8191ZM175.667 67.3151L169.403 48.8111L163.211 67.3151H175.667Z" fill="white"/>
<path d="M67.5095 23.2086C74.8936 20.9032 79.9049 25.4665 83.6908 28.7285C87.5382 32.3408 90.5859 36.4472 93.291 40.7174C94.921 43.3067 96.3931 45.9514 97.7543 48.6664C98.0129 49.1836 98.0542 49.7888 97.8759 50.3453C97.6972 50.9021 97.3135 51.3647 96.8025 51.6349C96.2915 51.905 95.6932 51.9615 95.1325 51.7955C94.5722 51.6294 94.0954 51.2544 93.8137 50.7495C92.3977 48.213 90.884 45.7612 89.241 43.392C86.5247 39.4899 83.485 35.8027 80.0206 32.838C76.7 29.9137 72.1735 27.6868 69.8194 28.9258C65.5183 30.9908 65.2592 40.8552 66.3865 48.0927C67.5236 55.8078 69.9258 63.4348 73.0469 70.7007C76.1861 77.9561 80.0782 84.9105 84.837 90.9273C87.2062 93.9033 89.837 96.6794 92.6048 98.7019C95.3139 100.813 98.4452 101.52 98.9213 100.955C99.8663 100.911 101.663 96.3377 101.552 91.8201C101.616 87.2095 100.864 82.2962 99.7026 77.4798C99.0536 74.802 98.2646 72.1304 97.3615 69.4905C96.8315 67.9361 96.948 66.2479 97.7058 64.7909C98.4625 63.3343 99.7986 62.2283 101.4 61.7225C103.001 61.2167 104.729 61.3544 106.186 62.1118C107.643 62.8689 108.708 64.1838 109.168 65.7605C110.051 68.7768 110.809 71.837 111.415 74.9376C112.491 80.5329 113.161 86.2498 112.816 92.2918C112.114 97.9425 112.189 106.084 102.878 110.748C95.3487 113.272 90.1389 109.353 86.4974 106.635C82.7633 103.616 79.8756 100.18 77.2907 96.6367C72.1611 89.505 68.3335 81.8024 65.292 73.8339C62.2838 65.8553 60.0575 57.5764 59.174 48.9642C58.7592 44.6666 58.6503 40.2658 59.3905 35.749C60.2109 31.4565 61.6049 25.7545 67.5095 23.2086Z" fill="white"/>
<path d="M81.529 64.6894C81.529 75.4251 72.826 84.1281 62.0903 84.1281C51.3546 84.1281 42.6516 75.4251 42.6516 64.6894C42.6516 53.9537 51.3546 45.2507 62.0903 45.2507C72.826 45.2507 81.529 53.9537 81.529 64.6894Z" fill="#8E51FF"/>
<path d="M86.8528 64.6894C86.8528 78.3655 75.7662 89.4521 62.0901 89.4521C48.4141 89.4521 37.3274 78.3655 37.3274 64.6894C37.3274 51.0134 48.4141 39.9267 62.0901 39.9267C75.7662 39.9267 86.8528 51.0134 86.8528 64.6894Z" fill="#8E51FF"/>
<path d="M74.4171 2.23949C82.6161 7.52405 83.2371 16.0402 83.4071 22.2428C83.3994 28.7757 82.2006 34.8389 80.5992 40.6921C77.3146 52.3973 72.2246 63.2335 66.1365 73.4241C60.0091 83.5881 52.85 93.1443 44.1723 101.452C39.8203 105.569 35.1024 109.411 29.5699 112.382C24.2221 115.122 16.9632 118.055 9.83933 114.091C9.64029 113.973 9.44527 113.85 9.25306 113.721C4.42223 110.42 2.88538 105.028 2.31594 100.506C2.22417 99.7373 2.44523 98.9572 2.92258 98.3389C3.40037 97.7205 4.09537 97.3145 4.86252 97.2091C5.62968 97.1038 6.40844 97.3074 7.03526 97.774C7.66162 98.2407 8.08476 98.9323 8.20375 99.6976C8.76819 103.457 10.2856 106.92 12.7384 108.367C12.8385 108.428 12.9396 108.487 13.0428 108.543C20.5354 112.04 31.5222 103.457 38.83 96.0228C46.5719 88.08 53.0527 78.8005 58.4917 69.0104C63.9012 59.2072 68.3034 48.813 70.8828 38.1729C73.5227 28.2611 73.731 14.2516 68.7932 11.9805C66.0487 10.1294 58.5022 13.2357 53.0199 17.7229C42.3189 26.2225 33.6001 38.1675 26.6507 50.627C23.3746 56.5521 20.5067 62.6861 18.1743 68.9508C16.7781 72.7059 15.5758 76.5102 14.6396 80.3134C14.1666 82.2263 12.9537 83.8588 11.2485 84.8466C9.5444 85.8346 7.48744 86.0971 5.54974 85.5813C3.61206 85.0655 1.95791 83.8152 0.970564 82.1107C-0.0179071 80.4059 -0.25866 78.3865 0.281903 76.4916C1.53193 72.0896 3.05132 67.8279 4.76208 63.6771C7.61961 56.7571 11.0085 50.1402 14.8134 43.7927C22.9552 30.4194 32.5988 17.8314 45.7788 8.036C52.8092 3.51266 61.8863 -3.68393 74.4171 2.23949Z" fill="white"/>
</svg>
