<svg width="1728" height="1728" viewBox="0 0 1728 1728" fill="none" xmlns="http://www.w3.org/2000/svg">
<mask id="mask0_17_307" style="mask-type:alpha" maskUnits="userSpaceOnUse" x="383" y="0" width="962" height="1728">
<path opacity="0.4" d="M383 1728L383 1.14717e-05L1345 0L1345 15.8838C1043.58 178.648 838.787 497.408 838.787 864C838.787 1230.59 1043.58 1549.35 1345 1712.12L1345 1728L383 1728Z" fill="#D9D9D9"/>
</mask>
<g mask="url(#mask0_17_307)">
<g filter="url(#filter0_f_17_307)">
<circle cx="1238.32" cy="930.539" r="498.626" transform="rotate(0.310753 1238.32 930.539)" fill="url(#paint0_linear_17_307)"/>
</g>
<g filter="url(#filter1_f_17_307)">
<path d="M1404.76 298.56L1835.26 1053.64L966.095 1048.93L1404.76 298.56Z" fill="url(#paint1_linear_17_307)"/>
</g>
</g>
<defs>
<filter id="filter0_f_17_307" x="459.277" y="151.497" width="1558.08" height="1558.08" filterUnits="userSpaceOnUse" color-interpolation-filters="sRGB">
<feFlood flood-opacity="0" result="BackgroundImageFix"/>
<feBlend mode="normal" in="SourceGraphic" in2="BackgroundImageFix" result="shape"/>
<feGaussianBlur stdDeviation="140.208" result="effect1_foregroundBlur_17_307"/>
</filter>
<filter id="filter1_f_17_307" x="755.784" y="88.2486" width="1289.79" height="1175.7" filterUnits="userSpaceOnUse" color-interpolation-filters="sRGB">
<feFlood flood-opacity="0" result="BackgroundImageFix"/>
<feBlend mode="normal" in="SourceGraphic" in2="BackgroundImageFix" result="shape"/>
<feGaussianBlur stdDeviation="105.156" result="effect1_foregroundBlur_17_307"/>
</filter>
<linearGradient id="paint0_linear_17_307" x1="842.774" y1="500.633" x2="1538.77" y2="1429.16" gradientUnits="userSpaceOnUse">
<stop stop-color="#6100FF"/>
<stop offset="1" stop-color="#00FFFF" stop-opacity="0"/>
</linearGradient>
<linearGradient id="paint1_linear_17_307" x1="1404.76" y1="298.56" x2="1399.32" y2="1302.19" gradientUnits="userSpaceOnUse">
<stop stop-color="#0075FF"/>
<stop offset="1" stop-color="#00A3FF" stop-opacity="0"/>
</linearGradient>
</defs>
</svg>
