<svg width="512" height="512" viewBox="0 0 512 512" fill="none" xmlns="http://www.w3.org/2000/svg">
  <rect width="512" height="512" rx="112" fill="#0f1016"/>
  <g transform="translate(256 256) scale(1.12) translate(-188 -193)">
    <path d="M64.4706 333.731C56.2177 330.024 46.1075 321.187 44.0719 308.996C41.7972 281.281 58.0462 269.04 69.6334 256.993C90.2442 238.439 113.638 225.644 137.949 215.373C162.768 205.163 188.746 197.655 216.189 195.762C233.444 195.435 253.018 193.614 270.395 210.036C277.065 217.029 278.556 228.403 276.269 236.294C274.165 244.458 270.091 250.889 265.723 256.63C255.36 269.842 242.701 279.653 229.58 288.344C222.786 292.792 215.803 296.848 208.664 300.59C207.09 301.414 205.236 301.575 203.521 301.056C201.804 300.537 200.366 299.379 199.513 297.821C198.66 296.263 198.46 294.428 198.947 292.702C199.435 290.977 200.57 289.502 202.112 288.62C208.756 284.815 215.209 280.735 221.404 276.34C233.345 267.824 244.667 258.098 252.704 246.945C259.756 237.449 262.608 226.329 257.329 221.961C250.149 214.759 232.583 213.676 217.735 215.234C193.614 217.772 169.475 225.607 146.936 235.915C124.871 246.157 103.599 259.143 87.0146 275.321C77.0003 284.634 68.5957 299.022 70.569 303.739C70.1205 306.2 79.5864 311.28 91.2659 311.534C104.756 312.243 119.593 309.876 133.933 306.198C141.048 304.362 148.103 302.162 155.08 299.659C158.975 298.264 163.237 298.49 166.943 300.329C170.648 302.166 173.493 305.466 174.838 309.459C176.184 313.453 175.915 317.802 174.076 321.506C172.239 325.213 168.982 327.971 165.038 329.218C157.122 331.729 149.099 333.908 140.92 335.697C124.347 339.236 107.311 341.578 89.0311 339.984C81.1823 339.195 73.0061 337.758 64.4706 333.731Z" fill="white"/>
    <path d="M166.377 271.089C130.488 271.089 101.394 241.996 101.394 206.107C101.394 170.218 130.488 141.124 166.377 141.124C202.266 141.124 231.36 170.218 231.36 206.107C231.36 241.996 202.266 271.089 166.377 271.089Z" fill="#A167FE"/>
    <path d="M328.095 239.576C306.977 265.848 279.507 261.197 258.458 259.506C222.04 254.297 189.232 240.528 158.32 223.936C125.531 205.949 94.8552 184.063 68.8127 156.704C51.9638 137.845 33.6721 117.347 31.9367 87.3489C31.9051 80.0535 34.0808 71.9877 38.9483 65.789C48.1692 54.1767 61.7844 50.8724 73.5578 49.6104C75.3287 49.438 77.1089 49.9843 78.5045 51.1116C79.9003 52.2399 80.7974 53.8569 81.0003 55.6243C81.2031 57.3916 80.6957 59.1698 79.5919 60.585C78.4879 61.9991 76.8779 62.9345 75.1139 63.1678C65.0556 64.4583 55.3309 68.1266 50.7738 74.6605C48.2746 78.1444 47.1821 82.4165 47.3368 87.2018C48.7475 107.495 65.2736 127.717 81.652 144.207C106.714 168.836 136.757 188.838 168.344 204.769C197.984 219.489 229.816 231.223 261.355 234.56C279.537 236.732 300.908 233.422 305.283 224.752C310.45 217.746 303.837 199.387 293.305 185.518C275.227 161.007 249.441 140.403 222.459 123.185C201.757 110.097 179.75 98.917 157.082 90.2525C147.196 86.4854 137.174 83.2123 127.136 80.6183C122.464 79.4066 118.499 76.3907 116.125 72.1882C113.75 67.9884 113.161 62.946 114.475 58.2164C115.789 53.4867 118.895 49.4707 123.096 47.0978C127.297 44.7222 132.25 44.1842 136.877 45.5561C148.32 48.9353 159.416 52.9957 170.228 57.5422C194.998 67.9982 218.379 80.9242 240.411 95.9174C269.165 115.802 296.34 138.491 317.299 168.834C327.946 186.312 344.352 210.304 328.095 239.576Z" fill="white"/>
  </g>
</svg>
