<svg width="363" height="353" viewBox="0 0 363 353" fill="none" xmlns="http://www.w3.org/2000/svg">
<path d="M205.684 51.6888C222.13 46.5544 233.291 56.7176 241.723 63.9825C250.292 72.0276 257.079 81.173 263.104 90.6833C266.735 96.4502 270.013 102.34 273.045 108.387C273.621 109.539 273.713 110.887 273.316 112.126C272.918 113.366 272.063 114.397 270.925 114.998C269.787 115.6 268.454 115.726 267.206 115.356C265.958 114.986 264.896 114.151 264.269 113.026C261.115 107.377 257.744 101.917 254.084 96.6401C248.035 87.9497 241.265 79.7378 233.549 73.1349C226.153 66.622 216.072 61.6624 210.829 64.4219C201.249 69.0209 200.672 90.9903 203.183 107.109C205.715 124.292 211.066 141.278 218.017 157.461C225.009 173.619 233.677 189.108 244.276 202.508C249.552 209.136 255.412 215.319 261.576 219.823C267.61 224.525 274.584 226.099 275.644 224.842C277.749 224.742 281.75 214.558 281.504 204.496C281.645 194.228 279.971 183.285 277.384 172.559C275.939 166.595 274.181 160.645 272.17 154.765C270.99 151.303 271.249 147.544 272.937 144.299C274.622 141.055 277.598 138.591 281.164 137.465C284.729 136.338 288.58 136.645 291.823 138.332C295.069 140.018 297.442 142.946 298.465 146.458C300.432 153.176 302.121 159.991 303.47 166.897C305.867 179.358 307.359 192.091 306.59 205.547C305.026 218.132 305.194 236.264 284.456 246.652C267.687 252.272 256.084 243.545 247.974 237.492C239.657 230.767 233.226 223.116 227.469 215.224C216.044 199.34 207.519 182.186 200.745 164.439C194.045 146.669 189.087 128.231 187.119 109.05C186.196 99.4788 185.953 89.6777 187.602 79.618C189.429 70.0581 192.533 57.3589 205.684 51.6888Z" fill="white"/>
<path d="M236.908 144.073C236.908 167.982 217.525 187.365 193.615 187.365C169.704 187.365 150.321 167.982 150.321 144.073C150.321 120.163 169.704 100.78 193.615 100.78C217.525 100.78 236.908 120.163 236.908 144.073Z" fill="#A684FF"/>
<path d="M248.766 144.073C248.766 174.531 224.074 199.223 193.615 199.223C163.156 199.223 138.464 174.531 138.464 144.073C138.464 113.614 163.156 88.9225 193.615 88.9225C224.074 88.9225 248.766 113.614 248.766 144.073Z" fill="#A684FF"/>
<path d="M221.069 4.98767C239.33 16.7571 240.713 35.7239 241.091 49.5378C241.074 64.0877 238.404 77.5911 234.837 90.627C227.522 116.696 216.186 140.83 202.626 163.526C188.98 186.163 173.035 207.446 153.708 225.949C144.015 235.118 133.508 243.674 121.186 250.292C109.275 256.392 93.1084 262.925 77.2421 254.098C76.7988 253.834 76.3645 253.56 75.9364 253.273C65.1773 245.921 61.7544 233.913 60.4862 223.842C60.2818 222.129 60.7741 220.392 61.8372 219.015C62.9014 217.638 64.4493 216.733 66.1579 216.499C67.8665 216.264 69.6009 216.717 70.997 217.757C72.392 218.796 73.3344 220.336 73.5994 222.041C74.8565 230.414 78.2361 238.126 83.6989 241.348C83.9218 241.485 84.1471 241.616 84.3769 241.74C101.064 249.529 125.534 230.413 141.81 213.856C159.052 196.167 173.486 175.5 185.6 153.696C197.648 131.863 207.453 108.713 213.197 85.0164C219.077 62.9414 219.541 31.7404 208.543 26.6822C202.431 22.5596 185.623 29.4779 173.413 39.4714C149.58 58.4011 130.162 85.0046 114.684 112.753C107.388 125.95 101 139.611 95.8057 153.563C92.6962 161.926 90.0183 170.399 87.9333 178.869C86.8797 183.13 84.1784 186.766 80.3806 188.965C76.5853 191.166 72.0041 191.75 67.6884 190.602C63.3729 189.453 59.6888 186.668 57.4898 182.872C55.2882 179.075 54.752 174.578 55.956 170.358C58.74 160.554 62.124 151.062 65.9342 141.818C72.2984 126.406 79.846 111.669 88.3203 97.5325C106.454 67.7483 127.932 39.713 157.286 17.8973C172.944 7.8232 193.16 -8.20464 221.069 4.98767Z" fill="white"/>
<path d="M297.031 352.414C295.13 352.414 293.535 351.985 292.247 351.126C290.959 350.206 290.162 348.98 289.855 347.446C289.549 345.852 289.825 344.073 290.683 342.11L313.591 292.798C314.695 290.406 316.045 288.658 317.639 287.554C319.295 286.45 321.166 285.898 323.251 285.898C325.337 285.898 327.146 286.45 328.679 287.554C330.274 288.658 331.654 290.406 332.819 292.798L355.727 342.11C356.709 344.073 357.046 345.852 356.739 347.446C356.494 349.041 355.727 350.268 354.439 351.126C353.213 351.985 351.679 352.414 349.839 352.414C347.386 352.414 345.485 351.862 344.135 350.758C342.847 349.654 341.682 347.876 340.639 345.422L335.671 333.738L342.111 338.43H304.207L310.739 333.738L305.771 345.422C304.667 347.876 303.533 349.654 302.367 350.758C301.202 351.862 299.423 352.414 297.031 352.414ZM323.067 304.39L312.395 329.874L309.819 325.458H336.591L334.015 329.874L323.251 304.39H323.067Z" fill="white"/>
<path d="M258.385 352.599C250.964 352.599 244.647 351.219 239.433 348.459C234.281 345.699 230.356 341.835 227.657 336.867C224.959 331.899 223.609 326.103 223.609 319.479C223.609 314.327 224.407 309.696 226.001 305.587C227.657 301.416 230.019 297.859 233.085 294.915C236.152 291.91 239.893 289.64 244.309 288.107C248.787 286.512 253.847 285.715 259.489 285.715C262.556 285.715 265.684 286.022 268.873 286.635C272.063 287.187 275.191 288.26 278.257 289.855C279.852 290.591 280.925 291.634 281.477 292.983C282.091 294.271 282.275 295.651 282.029 297.123C281.845 298.534 281.324 299.852 280.465 301.079C279.668 302.244 278.564 303.042 277.153 303.471C275.743 303.839 274.148 303.624 272.369 302.827C270.529 301.968 268.536 301.324 266.389 300.895C264.243 300.404 261.973 300.159 259.581 300.159C255.472 300.159 252.037 300.895 249.277 302.367C246.579 303.839 244.555 306.016 243.205 308.899C241.856 311.782 241.181 315.308 241.181 319.479C241.181 325.735 242.715 330.458 245.781 333.647C248.848 336.836 253.387 338.431 259.397 338.431C261.237 338.431 263.231 338.247 265.377 337.879C267.585 337.511 269.793 336.99 272.001 336.315L268.873 342.663V326.931H262.433C260.348 326.931 258.723 326.41 257.557 325.367C256.453 324.324 255.901 322.852 255.901 320.951C255.901 319.05 256.453 317.608 257.557 316.627C258.723 315.584 260.348 315.063 262.433 315.063H276.049C278.196 315.063 279.821 315.646 280.925 316.811C282.091 317.915 282.673 319.54 282.673 321.687V342.019C282.673 343.859 282.275 345.423 281.477 346.711C280.741 347.999 279.545 348.919 277.889 349.471C275.007 350.452 271.879 351.219 268.505 351.771C265.132 352.323 261.759 352.599 258.385 352.599Z" fill="white"/>
<path d="M177.402 351.587C174.52 351.587 172.312 350.851 170.778 349.379C169.306 347.845 168.57 345.668 168.57 342.847V295.467C168.57 292.645 169.306 290.499 170.778 289.027C172.312 287.493 174.52 286.727 177.402 286.727H208.59C210.798 286.727 212.454 287.279 213.558 288.383C214.662 289.487 215.214 291.081 215.214 293.167C215.214 295.313 214.662 296.969 213.558 298.135C212.454 299.239 210.798 299.791 208.59 299.791H184.762V312.119H206.566C208.713 312.119 210.338 312.671 211.442 313.775C212.608 314.879 213.19 316.504 213.19 318.651C213.19 320.797 212.608 322.423 211.442 323.527C210.338 324.631 208.713 325.183 206.566 325.183H184.762V338.523H208.59C210.798 338.523 212.454 339.105 213.558 340.271C214.662 341.375 215.214 342.969 215.214 345.055C215.214 347.201 214.662 348.827 213.558 349.931C212.454 351.035 210.798 351.587 208.59 351.587H177.402Z" fill="white"/>
<path d="M95.0813 352.414C92.628 352.414 90.7266 351.74 89.3773 350.39C88.0893 349.041 87.4453 347.14 87.4453 344.686V293.626C87.4453 291.112 88.1506 289.21 89.5613 287.922C90.972 286.573 92.9653 285.898 95.5413 285.898C97.688 285.898 99.3746 286.328 100.601 287.186C101.889 287.984 103.055 289.333 104.097 291.234L123.877 326.746H120.657L140.345 291.234C141.449 289.333 142.615 287.984 143.841 287.186C145.129 286.328 146.847 285.898 148.993 285.898C151.447 285.898 153.317 286.573 154.605 287.922C155.955 289.21 156.629 291.112 156.629 293.626V344.686C156.629 347.14 155.985 349.041 154.697 350.39C153.409 351.74 151.508 352.414 148.993 352.414C146.54 352.414 144.639 351.74 143.289 350.39C142.001 349.041 141.357 347.14 141.357 344.686V313.038H143.289L128.477 338.798C127.619 340.148 126.699 341.16 125.717 341.834C124.797 342.509 123.54 342.846 121.945 342.846C120.412 342.846 119.155 342.509 118.173 341.834C117.192 341.16 116.303 340.148 115.505 338.798L100.601 312.946H102.717V344.686C102.717 347.14 102.073 349.041 100.785 350.39C99.4973 351.74 97.596 352.414 95.0813 352.414Z" fill="white"/>
<path d="M44.3344 352.599C37.7718 352.599 32.0064 351.219 27.0384 348.459C22.0704 345.638 18.2064 341.712 15.4464 336.683C12.7478 331.654 11.3984 325.796 11.3984 319.111C11.3984 314.082 12.1651 309.512 13.6984 305.403C15.2931 301.294 17.5318 297.767 20.4144 294.823C23.3584 291.879 26.8544 289.64 30.9025 288.107C34.9504 286.512 39.4278 285.715 44.3344 285.715C50.8971 285.715 56.6318 287.095 61.5385 289.855C66.5065 292.615 70.3705 296.51 73.1304 301.539C75.8904 306.507 77.2704 312.364 77.2704 319.111C77.2704 324.14 76.4731 328.71 74.8784 332.819C73.3451 336.928 71.1064 340.486 68.1624 343.491C65.2798 346.435 61.8145 348.704 57.7664 350.299C53.7185 351.832 49.2411 352.599 44.3344 352.599ZM44.3344 338.431C47.5851 338.431 50.3451 337.664 52.6144 336.131C54.8838 334.598 56.6318 332.39 57.8584 329.507C59.0851 326.624 59.6984 323.159 59.6984 319.111C59.6984 313.039 58.3491 308.316 55.6504 304.943C52.9518 301.57 49.1798 299.883 44.3344 299.883C41.1451 299.883 38.3851 300.65 36.0544 302.183C33.7851 303.655 32.0371 305.832 30.8104 308.715C29.5838 311.536 28.9704 315.002 28.9704 319.111C28.9704 325.183 30.3198 329.936 33.0184 333.371C35.7171 336.744 39.4891 338.431 44.3344 338.431Z" fill="white"/>
</svg>
