<svg width="252" height="259" viewBox="0 0 252 259" fill="none" xmlns="http://www.w3.org/2000/svg">
<path d="M150.36 51.6888C166.806 46.5544 177.967 56.7176 186.399 63.9825C194.968 72.0276 201.756 81.173 207.78 90.6834C211.411 96.4502 214.689 102.34 217.721 108.387C218.297 109.539 218.389 110.887 217.992 112.126C217.594 113.366 216.739 114.397 215.601 114.998C214.463 115.6 213.131 115.726 211.882 115.356C210.634 114.986 209.572 114.151 208.945 113.026C205.791 107.377 202.42 101.917 198.76 96.6401C192.711 87.9497 185.941 79.7378 178.225 73.1349C170.829 66.622 160.748 61.6624 155.505 64.4219C145.926 69.0209 145.348 90.9903 147.859 107.109C150.392 124.292 155.742 141.278 162.693 157.461C169.685 173.619 178.353 189.108 188.952 202.508C194.228 209.136 200.088 215.319 206.252 219.823C212.286 224.525 219.26 226.099 220.32 224.842C222.425 224.742 226.426 214.558 226.18 204.496C226.321 194.228 224.647 183.285 222.06 172.559C220.615 166.595 218.858 160.645 216.846 154.765C215.666 151.303 215.925 147.544 217.613 144.299C219.298 141.055 222.274 138.591 225.84 137.465C229.405 136.338 233.256 136.645 236.499 138.332C239.745 140.018 242.118 142.946 243.141 146.458C245.108 153.176 246.797 159.991 248.146 166.897C250.543 179.358 252.035 192.091 251.266 205.547C249.702 218.132 249.87 236.264 229.132 246.652C212.363 252.272 200.76 243.545 192.65 237.492C184.333 230.767 177.902 223.116 172.145 215.224C160.72 199.34 152.195 182.186 145.422 164.439C138.722 146.669 133.763 128.231 131.795 109.05C130.872 99.4788 130.629 89.6777 132.278 79.618C134.105 70.0581 137.209 57.3589 150.36 51.6888Z" fill="white"/>
<path d="M193.442 144.073C193.442 174.531 168.75 199.223 138.291 199.223C107.832 199.223 83.1396 174.531 83.1396 144.073C83.1396 113.614 107.832 88.9225 138.291 88.9225C168.75 88.9225 193.442 113.614 193.442 144.073Z" fill="#A684FF"/>
<path d="M165.745 4.98768C184.006 16.7571 185.389 35.7239 185.767 49.5378C185.75 64.0877 183.08 77.5911 179.514 90.627C172.198 116.696 160.862 140.83 147.303 163.526C133.656 186.163 117.711 207.446 98.384 225.949C88.6914 235.118 78.1838 243.674 65.8618 250.292C53.9514 256.392 37.7844 262.925 21.9182 254.098C21.4749 253.834 21.0406 253.56 20.6125 253.273C9.85333 245.921 6.43046 233.913 5.16222 223.842C4.95783 222.129 5.45018 220.392 6.51331 219.015C7.57745 217.638 9.12535 216.733 10.8339 216.499C12.5425 216.264 14.277 216.717 15.673 217.757C17.068 218.796 18.0105 220.336 18.2755 222.041C19.5326 230.414 22.9122 238.126 28.375 241.348C28.5978 241.485 28.8232 241.616 29.053 241.74C45.7405 249.529 70.21 230.414 86.4858 213.856C103.729 196.167 118.162 175.5 130.276 153.696C142.324 131.863 152.129 108.713 157.873 85.0164C163.753 62.9414 164.217 31.7405 153.219 26.6822C147.107 22.5596 130.3 29.4779 118.089 39.4714C94.2562 58.4011 74.838 85.0046 59.3603 112.753C52.0637 125.95 45.6764 139.611 40.4818 153.563C37.3722 161.926 34.6943 170.399 32.6094 178.869C31.5558 183.13 28.8545 186.766 25.0567 188.965C21.2613 191.166 16.6801 191.75 12.3645 190.602C8.04892 189.453 4.36482 186.668 2.16582 182.872C-0.0356905 179.075 -0.571892 174.578 0.632044 170.358C3.41609 160.554 6.80005 151.062 10.6102 141.818C16.9745 126.406 24.5221 111.669 32.9963 97.5325C51.1298 67.7483 72.6079 39.7131 101.962 17.8973C117.62 7.82321 137.837 -8.20463 165.745 4.98768Z" fill="white"/>
</svg>
