<svg width="252" height="259" viewBox="0 0 252 259" fill="none" xmlns="http://www.w3.org/2000/svg">
<path d="M150.356 51.6888C166.802 46.5544 177.963 56.7176 186.395 63.9825C194.964 72.0276 201.751 81.173 207.776 90.6834C211.406 96.4502 214.685 102.34 217.717 108.387C218.293 109.539 218.385 110.887 217.988 112.126C217.59 113.366 216.735 114.397 215.597 114.998C214.459 115.6 213.126 115.726 211.878 115.356C210.63 114.986 209.568 114.151 208.94 113.026C205.787 107.377 202.415 101.917 198.756 96.6401C192.707 87.9497 185.936 79.7378 178.221 73.1349C170.825 66.622 160.744 61.6624 155.501 64.4219C145.921 69.0209 145.344 90.9903 147.855 107.109C150.387 124.292 155.738 141.278 162.689 157.461C169.68 173.619 178.349 189.108 188.948 202.508C194.224 209.136 200.083 215.319 206.248 219.823C212.281 224.525 219.256 226.099 220.316 224.842C222.421 224.742 226.422 214.558 226.176 204.496C226.317 194.228 224.643 183.285 222.056 172.559C220.611 166.595 218.853 160.645 216.842 154.765C215.661 151.303 215.921 147.544 217.609 144.299C219.294 141.055 222.27 138.591 225.835 137.465C229.401 136.338 233.252 136.645 236.495 138.332C239.741 140.018 242.114 142.946 243.136 146.458C245.104 153.176 246.792 159.991 248.142 166.897C250.539 179.358 252.031 192.091 251.261 205.547C249.698 218.132 249.866 236.264 229.128 246.652C212.359 252.272 200.756 243.545 192.646 237.492C184.329 230.767 177.898 223.116 172.141 215.224C160.716 199.34 152.191 182.186 145.417 164.439C138.717 146.669 133.759 128.231 131.791 109.05C130.868 99.4788 130.625 89.6777 132.274 79.618C134.101 70.0581 137.205 57.3589 150.356 51.6888Z" fill="#1D293D"/>
<path d="M193.438 144.073C193.438 174.531 168.746 199.223 138.287 199.223C107.827 199.223 83.1354 174.531 83.1354 144.073C83.1354 113.614 107.827 88.9225 138.287 88.9225C168.746 88.9225 193.438 113.614 193.438 144.073Z" fill="#A684FF"/>
<path d="M165.741 4.98768C184.001 16.7571 185.385 35.7239 185.763 49.5378C185.746 64.0877 183.076 77.5911 179.509 90.627C172.194 116.696 160.858 140.83 147.298 163.526C133.651 186.163 117.707 207.446 98.3798 225.949C88.6872 235.118 78.1796 243.674 65.8576 250.292C53.9472 256.392 37.7802 262.925 21.914 254.098C21.4707 253.834 21.0364 253.56 20.6083 253.273C9.84914 245.921 6.42627 233.913 5.15803 223.842C4.95364 222.129 5.44599 220.392 6.50912 219.015C7.57326 217.638 9.12116 216.733 10.8297 216.499C12.5383 216.264 14.2728 216.717 15.6688 217.757C17.0638 218.796 18.0063 220.336 18.2713 222.041C19.5284 230.414 22.908 238.126 28.3708 241.348C28.5936 241.485 28.819 241.616 29.0488 241.74C45.7363 249.529 70.2058 230.414 86.4816 213.856C103.724 196.167 118.158 175.5 130.272 153.696C142.32 131.863 152.124 108.713 157.869 85.0164C163.749 62.9414 164.213 31.7405 153.215 26.6822C147.103 22.5596 130.295 29.4779 118.085 39.4714C94.252 58.4011 74.8338 85.0046 59.3561 112.753C52.0595 125.95 45.6722 139.611 40.4776 153.563C37.368 161.926 34.6902 170.399 32.6052 178.869C31.5516 183.13 28.8503 186.766 25.0525 188.965C21.2571 191.166 16.6759 191.75 12.3603 190.602C8.04473 189.453 4.36063 186.668 2.16163 182.872C-0.0398827 179.075 -0.576085 174.578 0.627851 170.358C3.41189 160.554 6.79585 151.062 10.606 141.818C16.9703 126.406 24.5179 111.669 32.9921 97.5325C51.1256 67.7483 72.6037 39.7131 101.958 17.8973C117.616 7.82321 137.832 -8.20463 165.741 4.98768Z" fill="#1D293D"/>
</svg>
