<svg width="471" height="117" viewBox="0 0 471 117" fill="none" xmlns="http://www.w3.org/2000/svg">
<path d="M412.373 94.5015C410.637 94.5015 409.181 94.1095 408.005 93.3255C406.829 92.4855 406.101 91.3655 405.821 89.9655C405.541 88.5095 405.793 86.8855 406.577 85.0935L427.493 40.0695C428.501 37.8855 429.733 36.2895 431.189 35.2815C432.701 34.2735 434.409 33.7695 436.313 33.7695C438.217 33.7695 439.869 34.2735 441.269 35.2815C442.725 36.2895 443.985 37.8855 445.049 40.0695L465.965 85.0935C466.861 86.8855 467.169 88.5095 466.889 89.9655C466.665 91.4215 465.965 92.5415 464.789 93.3255C463.669 94.1095 462.269 94.5015 460.589 94.5015C458.349 94.5015 456.613 93.9975 455.381 92.9895C454.205 91.9815 453.141 90.3575 452.189 88.1175L447.653 77.4495L453.533 81.7335H418.925L424.889 77.4495L420.353 88.1175C419.345 90.3575 418.309 91.9815 417.245 92.9895C416.181 93.9975 414.557 94.5015 412.373 94.5015ZM436.145 50.6535L426.401 73.9215L424.049 69.8895H448.493L446.141 73.9215L436.313 50.6535H436.145Z" fill="white"/>
<path d="M377.088 94.6696C370.312 94.6696 364.544 93.4096 359.784 90.8896C355.08 88.3696 351.496 84.8416 349.032 80.3056C346.568 75.7696 345.336 70.4776 345.336 64.4296C345.336 59.7256 346.064 55.4976 347.52 51.7456C349.032 47.9376 351.188 44.6896 353.988 42.0016C356.788 39.2576 360.204 37.1856 364.236 35.7856C368.324 34.3296 372.944 33.6016 378.096 33.6016C380.896 33.6016 383.752 33.8816 386.664 34.4416C389.576 34.9456 392.432 35.9256 395.232 37.3816C396.688 38.0536 397.668 39.0056 398.172 40.2376C398.732 41.4136 398.9 42.6736 398.676 44.0176C398.508 45.3056 398.032 46.5096 397.248 47.6296C396.52 48.6936 395.512 49.4216 394.224 49.8136C392.936 50.1496 391.48 49.9536 389.856 49.2256C388.176 48.4416 386.356 47.8536 384.396 47.4616C382.436 47.0136 380.364 46.7896 378.18 46.7896C374.428 46.7896 371.292 47.4616 368.772 48.8056C366.308 50.1496 364.46 52.1376 363.228 54.7696C361.996 57.4016 361.38 60.6216 361.38 64.4296C361.38 70.1416 362.78 74.4536 365.58 77.3656C368.38 80.2776 372.524 81.7336 378.012 81.7336C379.692 81.7336 381.512 81.5656 383.472 81.2296C385.488 80.8936 387.504 80.4176 389.52 79.8016L386.664 85.5976V71.2336H380.784C378.88 71.2336 377.396 70.7576 376.332 69.8056C375.324 68.8536 374.82 67.5096 374.82 65.7736C374.82 64.0376 375.324 62.7216 376.332 61.8256C377.396 60.8736 378.88 60.3976 380.784 60.3976H393.216C395.176 60.3976 396.66 60.9296 397.668 61.9936C398.732 63.0016 399.264 64.4856 399.264 66.4456V85.0096C399.264 86.6896 398.9 88.1176 398.172 89.2936C397.5 90.4696 396.408 91.3096 394.896 91.8136C392.264 92.7096 389.408 93.4096 386.328 93.9136C383.248 94.4176 380.168 94.6696 377.088 94.6696Z" fill="white"/>
<path d="M303.15 93.7473C300.518 93.7473 298.502 93.0753 297.102 91.7313C295.758 90.3313 295.086 88.3433 295.086 85.7673V42.5073C295.086 39.9313 295.758 37.9713 297.102 36.6273C298.502 35.2273 300.518 34.5273 303.15 34.5273H331.626C333.642 34.5273 335.154 35.0313 336.162 36.0393C337.17 37.0473 337.674 38.5033 337.674 40.4073C337.674 42.3673 337.17 43.8793 336.162 44.9433C335.154 45.9513 333.642 46.4553 331.626 46.4553H309.87V57.7113H329.778C331.738 57.7113 333.222 58.2153 334.23 59.2233C335.294 60.2313 335.826 61.7153 335.826 63.6753C335.826 65.6353 335.294 67.1193 334.23 68.1273C333.222 69.1353 331.738 69.6393 329.778 69.6393H309.87V81.8193H331.626C333.642 81.8193 335.154 82.3513 336.162 83.4153C337.17 84.4233 337.674 85.8793 337.674 87.7833C337.674 89.7433 337.17 91.2273 336.162 92.2353C335.154 93.2433 333.642 93.7473 331.626 93.7473H303.15Z" fill="white"/>
<path d="M227.988 94.5015C225.748 94.5015 224.012 93.8855 222.78 92.6535C221.604 91.4215 221.016 89.6855 221.016 87.4455V40.8255C221.016 38.5295 221.66 36.7935 222.948 35.6175C224.236 34.3855 226.056 33.7695 228.408 33.7695C230.368 33.7695 231.908 34.1615 233.028 34.9455C234.204 35.6735 235.268 36.9055 236.22 38.6415L254.28 71.0655H251.34L269.316 38.6415C270.324 36.9055 271.388 35.6735 272.508 34.9455C273.684 34.1615 275.252 33.7695 277.212 33.7695C279.452 33.7695 281.16 34.3855 282.336 35.6175C283.568 36.7935 284.184 38.5295 284.184 40.8255V87.4455C284.184 89.6855 283.596 91.4215 282.42 92.6535C281.244 93.8855 279.508 94.5015 277.212 94.5015C274.972 94.5015 273.236 93.8855 272.004 92.6535C270.828 91.4215 270.24 89.6855 270.24 87.4455V58.5495H272.004L258.48 82.0695C257.696 83.3015 256.856 84.2255 255.96 84.8415C255.12 85.4575 253.972 85.7655 252.516 85.7655C251.116 85.7655 249.968 85.4575 249.072 84.8415C248.176 84.2255 247.364 83.3015 246.636 82.0695L233.028 58.4655H234.96V87.4455C234.96 89.6855 234.372 91.4215 233.196 92.6535C232.02 93.8855 230.284 94.5015 227.988 94.5015Z" fill="white"/>
<path d="M181.65 94.6696C175.658 94.6696 170.394 93.4096 165.858 90.8896C161.322 88.3136 157.794 84.7296 155.274 80.1376C152.81 75.5456 151.578 70.1976 151.578 64.0936C151.578 59.5016 152.278 55.3296 153.678 51.5776C155.134 47.8256 157.178 44.6056 159.81 41.9176C162.498 39.2296 165.69 37.1856 169.386 35.7856C173.082 34.3296 177.17 33.6016 181.65 33.6016C187.642 33.6016 192.878 34.8616 197.358 37.3816C201.894 39.9016 205.422 43.4576 207.942 48.0496C210.462 52.5856 211.722 57.9336 211.722 64.0936C211.722 68.6856 210.994 72.8576 209.538 76.6096C208.138 80.3616 206.094 83.6096 203.406 86.3536C200.774 89.0416 197.61 91.1136 193.914 92.5696C190.218 93.9696 186.13 94.6696 181.65 94.6696ZM181.65 81.7336C184.618 81.7336 187.138 81.0336 189.21 79.6336C191.282 78.2336 192.878 76.2176 193.998 73.5856C195.118 70.9536 195.678 67.7896 195.678 64.0936C195.678 58.5496 194.446 54.2376 191.982 51.1576C189.518 48.0776 186.074 46.5376 181.65 46.5376C178.738 46.5376 176.218 47.2376 174.09 48.6376C172.018 49.9816 170.422 51.9696 169.302 54.6016C168.182 57.1776 167.622 60.3416 167.622 64.0936C167.622 69.6376 168.854 73.9776 171.318 77.1136C173.782 80.1936 177.226 81.7336 181.65 81.7336Z" fill="white"/>
<path d="M67.5095 23.2086C74.8936 20.9032 79.9049 25.4665 83.6908 28.7285C87.5382 32.3408 90.5859 36.4472 93.291 40.7174C94.921 43.3067 96.3931 45.9514 97.7543 48.6664C98.0129 49.1836 98.0542 49.7888 97.8759 50.3453C97.6972 50.9021 97.3135 51.3648 96.8025 51.6349C96.2915 51.905 95.6932 51.9615 95.1325 51.7955C94.5722 51.6294 94.0954 51.2544 93.8137 50.7495C92.3977 48.213 90.884 45.7612 89.241 43.392C86.5247 39.4899 83.485 35.8027 80.0206 32.838C76.7 29.9137 72.1735 27.6868 69.8194 28.9258C65.5183 30.9908 65.2592 40.8552 66.3865 48.0927C67.5236 55.8078 69.9258 63.4348 73.0469 70.7007C76.1861 77.9561 80.0782 84.9105 84.837 90.9273C87.2062 93.9033 89.8369 96.6794 92.6048 98.7019C95.3139 100.813 98.4452 101.52 98.9213 100.955C99.8663 100.911 101.663 96.3377 101.552 91.8201C101.616 87.2095 100.864 82.2962 99.7026 77.4798C99.0536 74.802 98.2646 72.1304 97.3615 69.4905C96.8315 67.9361 96.948 66.2479 97.7058 64.7909C98.4625 63.3343 99.7986 62.2283 101.4 61.7225C103.001 61.2167 104.729 61.3544 106.186 62.1118C107.643 62.8689 108.708 64.1838 109.168 65.7605C110.051 68.7768 110.809 71.837 111.415 74.9376C112.491 80.5329 113.161 86.2498 112.816 92.2918C112.114 97.9425 112.189 106.084 102.878 110.748C95.3487 113.272 90.1389 109.353 86.4974 106.635C82.7633 103.616 79.8756 100.18 77.2907 96.6366C72.1611 89.505 68.3334 81.8024 65.292 73.8339C62.2838 65.8553 60.0575 57.5764 59.174 48.9642C58.7592 44.6666 58.6503 40.2658 59.3905 35.7489C60.2109 31.4565 61.6049 25.7545 67.5095 23.2086Z" fill="white"/>
<path d="M86.8529 64.6894C86.8529 78.3655 75.7663 89.4521 62.0903 89.4521C48.4142 89.4521 37.3276 78.3655 37.3276 64.6894C37.3276 51.0134 48.4142 39.9267 62.0903 39.9267C75.7663 39.9267 86.8529 51.0134 86.8529 64.6894Z" fill="#A684FF"/>
<path d="M74.4171 2.23949C82.6161 7.52405 83.2371 16.0402 83.4071 22.2428C83.3994 28.7757 82.2006 34.8389 80.5992 40.6921C77.3146 52.3973 72.2246 63.2335 66.1365 73.4241C60.0091 83.5881 52.85 93.1443 44.1723 101.452C39.8203 105.569 35.1024 109.411 29.5699 112.382C24.2221 115.122 16.9632 118.055 9.83933 114.091C9.64029 113.973 9.44527 113.85 9.25306 113.721C4.42223 110.42 2.88538 105.028 2.31594 100.506C2.22417 99.7373 2.44523 98.9572 2.92258 98.3389C3.40037 97.7205 4.09537 97.3145 4.86252 97.2091C5.62968 97.1038 6.40844 97.3074 7.03526 97.774C7.66162 98.2407 8.08476 98.9323 8.20375 99.6976C8.76819 103.457 10.2856 106.92 12.7384 108.367C12.8385 108.428 12.9396 108.487 13.0428 108.543C20.5354 112.04 31.5222 103.457 38.83 96.0228C46.5719 88.08 53.0527 78.8005 58.4917 69.0104C63.9012 59.2072 68.3034 48.813 70.8828 38.1729C73.5227 28.2611 73.731 14.2516 68.7931 11.9805C66.0487 10.1294 58.5022 13.2357 53.0199 17.7229C42.3189 26.2224 33.6001 38.1675 26.6507 50.627C23.3746 56.5521 20.5067 62.6861 18.1743 68.9508C16.7781 72.7059 15.5758 76.5102 14.6396 80.3134C14.1666 82.2263 12.9537 83.8588 11.2485 84.8466C9.5444 85.8347 7.48744 86.0971 5.54974 85.5813C3.61206 85.0655 1.95791 83.8152 0.970564 82.1107C-0.0179071 80.4059 -0.25866 78.3865 0.281903 76.4916C1.53193 72.0896 3.05132 67.8279 4.76208 63.6771C7.61961 56.7571 11.0085 50.1402 14.8134 43.7927C22.9552 30.4194 32.5988 17.8314 45.7788 8.036C52.8092 3.51266 61.8863 -3.68393 74.4171 2.23949Z" fill="white"/>
</svg>
