<svg width="363" height="353" viewBox="0 0 363 353" fill="none" xmlns="http://www.w3.org/2000/svg">
<path d="M344.259 352.67C340.366 352.67 336.899 352.003 333.859 350.67C330.819 349.337 328.419 347.523 326.659 345.23C324.899 342.883 323.913 340.27 323.699 337.39H337.219C337.379 338.937 338.099 340.19 339.379 341.15C340.659 342.11 342.233 342.59 344.099 342.59C345.806 342.59 347.113 342.27 348.019 341.63C348.979 340.937 349.459 340.057 349.459 338.99C349.459 337.71 348.793 336.777 347.459 336.19C346.126 335.55 343.966 334.857 340.979 334.11C337.779 333.363 335.113 332.59 332.979 331.79C330.846 330.937 329.006 329.63 327.459 327.87C325.913 326.057 325.139 323.63 325.139 320.59C325.139 318.03 325.833 315.71 327.219 313.63C328.659 311.497 330.739 309.817 333.459 308.59C336.233 307.363 339.513 306.75 343.299 306.75C348.899 306.75 353.299 308.137 356.499 310.91C359.753 313.683 361.619 317.363 362.099 321.95H349.459C349.246 320.403 348.553 319.177 347.379 318.27C346.259 317.363 344.766 316.91 342.899 316.91C341.299 316.91 340.073 317.23 339.219 317.87C338.366 318.457 337.939 319.283 337.939 320.35C337.939 321.63 338.606 322.59 339.939 323.23C341.326 323.87 343.459 324.51 346.339 325.15C349.646 326.003 352.339 326.857 354.419 327.71C356.499 328.51 358.313 329.843 359.859 331.71C361.459 333.523 362.286 335.977 362.339 339.07C362.339 341.683 361.593 344.03 360.099 346.11C358.659 348.137 356.553 349.737 353.779 350.91C351.059 352.083 347.886 352.67 344.259 352.67Z" fill="white"/>
<path d="M303.928 352.032L290.328 333.312V352.032H276.648V292.832H290.328V325.552L303.848 307.392H320.728L302.168 329.792L320.888 352.032H303.928Z" fill="white"/>
<path d="M246.028 352.67C241.655 352.67 237.708 351.737 234.188 349.87C230.722 348.003 227.975 345.337 225.948 341.87C223.975 338.403 222.988 334.35 222.988 329.71C222.988 325.123 224.002 321.097 226.028 317.63C228.055 314.11 230.828 311.417 234.348 309.55C237.868 307.683 241.815 306.75 246.188 306.75C250.562 306.75 254.508 307.683 258.028 309.55C261.548 311.417 264.322 314.11 266.348 317.63C268.375 321.097 269.388 325.123 269.388 329.71C269.388 334.297 268.348 338.35 266.268 341.87C264.242 345.337 261.442 348.003 257.868 349.87C254.348 351.737 250.402 352.67 246.028 352.67ZM246.028 340.83C248.642 340.83 250.855 339.87 252.668 337.95C254.535 336.03 255.468 333.283 255.468 329.71C255.468 326.137 254.562 323.39 252.748 321.47C250.988 319.55 248.802 318.59 246.188 318.59C243.522 318.59 241.308 319.55 239.548 321.47C237.788 323.337 236.908 326.083 236.908 329.71C236.908 333.283 237.762 336.03 239.468 337.95C241.228 339.87 243.415 340.83 246.028 340.83Z" fill="white"/>
<path d="M195.091 352.67C190.717 352.67 186.771 351.737 183.251 349.87C179.784 348.003 177.037 345.337 175.011 341.87C173.037 338.403 172.051 334.35 172.051 329.71C172.051 325.123 173.064 321.097 175.091 317.63C177.117 314.11 179.891 311.417 183.411 309.55C186.931 307.683 190.877 306.75 195.251 306.75C199.624 306.75 203.571 307.683 207.091 309.55C210.611 311.417 213.384 314.11 215.411 317.63C217.437 321.097 218.451 325.123 218.451 329.71C218.451 334.297 217.411 338.35 215.331 341.87C213.304 345.337 210.504 348.003 206.931 349.87C203.411 351.737 199.464 352.67 195.091 352.67ZM195.091 340.83C197.704 340.83 199.917 339.87 201.731 337.95C203.597 336.03 204.531 333.283 204.531 329.71C204.531 326.137 203.624 323.39 201.811 321.47C200.051 319.55 197.864 318.59 195.251 318.59C192.584 318.59 190.371 319.55 188.611 321.47C186.851 323.337 185.971 326.083 185.971 329.71C185.971 333.283 186.824 336.03 188.531 337.95C190.291 339.87 192.477 340.83 195.091 340.83Z" fill="white"/>
<path d="M134.157 313.712C135.437 311.632 137.277 309.952 139.677 308.672C142.077 307.392 144.823 306.752 147.917 306.752C151.597 306.752 154.93 307.685 157.917 309.552C160.903 311.419 163.25 314.085 164.957 317.552C166.717 321.019 167.597 325.045 167.597 329.632C167.597 334.219 166.717 338.272 164.957 341.792C163.25 345.259 160.903 347.952 157.917 349.872C154.93 351.739 151.597 352.672 147.917 352.672C144.77 352.672 142.023 352.059 139.677 350.832C137.33 349.552 135.49 347.872 134.157 345.792V352.032H120.477V292.832H134.157V313.712ZM153.677 329.632C153.677 326.219 152.717 323.552 150.797 321.632C148.93 319.659 146.61 318.672 143.837 318.672C141.117 318.672 138.797 319.659 136.877 321.632C135.01 323.605 134.077 326.299 134.077 329.712C134.077 333.125 135.01 335.819 136.877 337.792C138.797 339.765 141.117 340.752 143.837 340.752C146.557 340.752 148.877 339.765 150.797 337.792C152.717 335.765 153.677 333.045 153.677 329.632Z" fill="white"/>
<path d="M99.9378 314.83C101.538 312.377 103.538 310.457 105.938 309.07C108.338 307.63 111.004 306.91 113.938 306.91V321.39H110.178C106.764 321.39 104.204 322.137 102.498 323.63C100.791 325.07 99.9378 327.63 99.9378 331.31V352.03H86.2578V307.39H99.9378V314.83Z" fill="white"/>
<path d="M69.5428 302.753C67.1428 302.753 65.1695 302.06 63.6228 300.673C62.1295 299.233 61.3828 297.473 61.3828 295.393C61.3828 293.26 62.1295 291.5 63.6228 290.113C65.1695 288.673 67.1428 287.953 69.5428 287.953C71.8895 287.953 73.8095 288.673 75.3028 290.113C76.8495 291.5 77.6228 293.26 77.6228 295.393C77.6228 297.473 76.8495 299.233 75.3028 300.673C73.8095 302.06 71.8895 302.753 69.5428 302.753ZM76.3428 307.393V352.033H62.6628V307.393H76.3428Z" fill="white"/>
<path d="M38.64 342.111H17.68L14.32 352.031H0L20.32 295.871H36.16L56.48 352.031H42L38.64 342.111ZM35.12 331.551L28.16 310.991L21.28 331.551H35.12Z" fill="white"/>
<path d="M207.286 51.6888C223.731 46.5544 234.893 56.7176 243.325 63.9825C251.893 72.0276 258.681 81.173 264.706 90.6833C268.336 96.4502 271.615 102.34 274.646 108.387C275.222 109.539 275.314 110.887 274.917 112.126C274.519 113.366 273.665 114.397 272.527 114.998C271.389 115.6 270.056 115.726 268.807 115.356C267.559 114.986 266.497 114.151 265.87 113.026C262.716 107.377 259.345 101.917 255.686 96.6401C249.636 87.9497 242.866 79.7378 235.15 73.1349C227.755 66.622 217.673 61.6624 212.43 64.4219C202.851 69.0209 202.274 90.9903 204.785 107.109C207.317 124.292 212.667 141.278 219.619 157.461C226.61 173.619 235.279 189.108 245.877 202.508C251.154 209.136 257.013 215.319 263.178 219.823C269.211 224.525 276.185 226.099 277.246 224.842C279.35 224.742 283.351 214.558 283.105 204.496C283.247 194.228 281.573 183.285 278.986 172.559C277.54 166.595 275.783 160.645 273.772 154.765C272.591 151.303 272.851 147.544 274.539 144.299C276.224 141.055 279.199 138.591 282.765 137.465C286.331 136.338 290.182 136.645 293.425 138.332C296.671 140.018 299.043 142.946 300.066 146.458C302.034 153.176 303.722 159.991 305.071 166.897C307.469 179.358 308.961 192.091 308.191 205.547C306.628 218.132 306.795 236.264 286.057 246.652C269.289 252.272 257.686 243.545 249.575 237.492C241.259 230.767 234.827 223.116 229.07 215.224C217.646 199.34 209.121 182.186 202.347 164.439C195.647 146.669 190.689 128.231 188.721 109.05C187.797 99.4788 187.555 89.6777 189.203 79.618C191.03 70.0581 194.135 57.3589 207.286 51.6888Z" fill="white"/>
<path d="M238.51 144.073C238.51 167.982 219.127 187.365 195.216 187.365C171.306 187.365 151.923 167.982 151.923 144.073C151.923 120.163 171.306 100.78 195.216 100.78C219.127 100.78 238.51 120.163 238.51 144.073Z" fill="#8E51FF"/>
<path d="M250.367 144.073C250.367 174.531 225.675 199.223 195.216 199.223C164.757 199.223 140.065 174.531 140.065 144.073C140.065 113.614 164.757 88.9225 195.216 88.9225C225.675 88.9225 250.367 113.614 250.367 144.073Z" fill="#8E51FF"/>
<path d="M222.67 4.98767C240.931 16.7571 242.314 35.7239 242.693 49.5378C242.676 64.0877 240.006 77.5911 236.439 90.627C229.124 116.696 217.787 140.83 204.228 163.526C190.581 186.163 174.636 207.446 155.31 225.949C145.617 235.118 135.109 243.674 122.787 250.292C110.877 256.392 94.7099 262.925 78.8437 254.098C78.4004 253.834 77.9661 253.56 77.538 253.273C66.7788 245.921 63.356 233.913 62.0877 223.842C61.8833 222.129 62.3757 220.392 63.4388 219.015C64.503 217.638 66.0508 216.733 67.7594 216.499C69.468 216.264 71.2025 216.717 72.5985 217.757C73.9935 218.796 74.9359 220.336 75.201 222.041C76.4581 230.414 79.8377 238.126 85.3005 241.348C85.5233 241.485 85.7487 241.616 85.9785 241.74C102.666 249.529 127.135 230.413 143.411 213.856C160.654 196.167 175.088 175.5 187.202 153.696C199.249 131.863 209.054 108.713 214.799 85.0164C220.678 62.9414 221.142 31.7404 210.145 26.6822C204.032 22.5596 187.225 29.4779 175.015 39.4714C151.182 58.4011 131.763 85.0045 116.286 112.753C108.989 125.95 102.602 139.611 97.4073 153.563C94.2977 161.926 91.6198 170.399 89.5349 178.869C88.4813 183.13 85.78 186.766 81.9822 188.965C78.1868 191.166 73.6056 191.75 69.29 190.602C64.9744 189.453 61.2903 186.668 59.0913 182.872C56.8898 179.075 56.3536 174.578 57.5575 170.358C60.3416 160.554 63.7255 151.062 67.5357 141.818C73.9 126.406 81.4476 111.669 89.9218 97.5325C108.055 67.7483 129.533 39.7131 158.888 17.8973C174.546 7.8232 194.762 -8.20464 222.67 4.98767Z" fill="white"/>
</svg>
