<svg width="1728" height="1728" viewBox="0 0 1728 1728" fill="none" xmlns="http://www.w3.org/2000/svg">
<mask id="mask0_17_315" style="mask-type:alpha" maskUnits="userSpaceOnUse" x="0" y="0" width="1728" height="1728">
<path d="M2.06062e-05 1728L0 2.06062e-05L1728 0L1728 1728L2.06062e-05 1728ZM1314 864C1314 615.472 1112.53 414 864 414C615.472 414 414 615.472 414 864C414 1112.53 615.472 1314 864 1314C1112.53 1314 1314 1112.53 1314 864Z" fill="#D9D9D9"/>
</mask>
<g mask="url(#mask0_17_315)">
<g filter="url(#filter0_f_17_315)">
<circle cx="870.871" cy="891.296" r="433.7" fill="url(#paint0_linear_17_315)"/>
</g>
<g filter="url(#filter1_f_17_315)">
<path d="M1012.66 340.829L1390.66 995.55H634.655L1012.66 340.829Z" fill="url(#paint1_linear_17_315)"/>
</g>
</g>
<defs>
<filter id="filter0_f_17_315" x="237.171" y="257.595" width="1267.4" height="1267.4" filterUnits="userSpaceOnUse" color-interpolation-filters="sRGB">
<feFlood flood-opacity="0" result="BackgroundImageFix"/>
<feBlend mode="normal" in="SourceGraphic" in2="BackgroundImageFix" result="shape"/>
<feGaussianBlur stdDeviation="100" result="effect1_foregroundBlur_17_315"/>
</filter>
<filter id="filter1_f_17_315" x="484.655" y="190.829" width="1056.01" height="954.721" filterUnits="userSpaceOnUse" color-interpolation-filters="sRGB">
<feFlood flood-opacity="0" result="BackgroundImageFix"/>
<feBlend mode="normal" in="SourceGraphic" in2="BackgroundImageFix" result="shape"/>
<feGaussianBlur stdDeviation="75" result="effect1_foregroundBlur_17_315"/>
</filter>
<linearGradient id="paint0_linear_17_315" x1="526.83" y1="517.368" x2="1132.2" y2="1325" gradientUnits="userSpaceOnUse">
<stop stop-color="#6100FF"/>
<stop offset="1" stop-color="#00FFFF" stop-opacity="0"/>
</linearGradient>
<linearGradient id="paint1_linear_17_315" x1="1012.66" y1="340.829" x2="1012.66" y2="1213.79" gradientUnits="userSpaceOnUse">
<stop stop-color="#0075FF"/>
<stop offset="1" stop-color="#00A3FF" stop-opacity="0"/>
</linearGradient>
</defs>
</svg>
