<svg xmlns="http://www.w3.org/2000/svg" viewBox="-8 -8 133 133">
  <!-- Dark background with rounded corners -->
  <rect x="-8" y="-8" width="133" height="133" rx="26" fill="#15121B"/>
  <!-- White swirl 1 -->
  <path d="M67.5095 23.2086C74.8936 20.9032 79.9049 25.4665 83.6908 28.7285C87.5382 32.3408 90.5859 36.4472 93.291 40.7174C94.921 43.3067 96.3931 45.9514 97.7543 48.6664C98.0129 49.1836 98.0542 49.7888 97.8759 50.3453C97.6972 50.9021 97.3135 51.3647 96.8025 51.6349C96.2915 51.905 95.6932 51.9615 95.1325 51.7955C94.5722 51.6294 94.0954 51.2544 93.8137 50.7495C92.3977 48.213 90.884 45.7612 89.241 43.392C86.5247 39.4899 83.485 35.8027 80.0206 32.838C76.7 29.9137 72.1735 27.6868 69.8194 28.9258C65.5183 30.9908 65.2592 40.8552 66.3865 48.0927C67.5236 55.8078 69.9258 63.4348 73.0469 70.7007C76.1861 77.9561 80.0782 84.9105 84.837 90.9273C87.2062 93.9033 89.837 96.6794 92.6048 98.7019C95.3139 100.813 98.4452 101.52 98.9213 100.955C99.8663 100.911 101.663 96.3377 101.552 91.8201C101.616 87.2095 100.864 82.2962 99.7026 77.4798C99.0536 74.802 98.2646 72.1304 97.3615 69.4905C96.8315 67.9361 96.948 66.2479 97.7058 64.7909C98.4625 63.3343 99.7986 62.2283 101.4 61.7225C103.001 61.2167 104.729 61.3544 106.186 62.1118C107.643 62.8689 108.708 64.1838 109.168 65.7605C110.051 68.7768 110.809 71.837 111.415 74.9376C112.491 80.5329 113.161 86.2498 112.816 92.2918C112.114 97.9425 112.189 106.084 102.878 110.748C95.3487 113.272 90.1389 109.353 86.4974 106.635C82.7633 103.616 79.8756 100.18 77.2907 96.6367C72.1611 89.505 68.3335 81.8024 65.292 73.8339C62.2838 65.8553 60.0575 57.5764 59.174 48.9642C58.7592 44.6666 58.6503 40.2658 59.3905 35.749C60.2109 31.4565 61.6049 25.7545 67.5095 23.2086Z" fill="white"/>
  <!-- Purple outer circle -->
  <path d="M86.8528 64.6894C86.8528 78.3655 75.7662 89.4521 62.0901 89.4521C48.4141 89.4521 37.3274 78.3655 37.3274 64.6894C37.3274 51.0134 48.4141 39.9267 62.0901 39.9267C75.7662 39.9267 86.8528 51.0134 86.8528 64.6894Z" fill="#8E51FF"/>
  <!-- Purple inner circle -->
  <path d="M81.529 64.6894C81.529 75.4251 72.826 84.1281 62.0903 84.1281C51.3546 84.1281 42.6516 75.4251 42.6516 64.6894C42.6516 53.9537 51.3546 45.2507 62.0903 45.2507C72.826 45.2507 81.529 53.9537 81.529 64.6894Z" fill="#8E51FF"/>
  <!-- White swirl 2 -->
  <path d="M74.4171 2.23949C82.6161 7.52405 83.2371 16.0402 83.4071 22.2428C83.3994 28.7757 82.2006 34.8389 80.5992 40.6921C77.3146 52.3973 72.2246 63.2335 66.1365 73.4241C60.0091 83.5881 52.85 93.1443 44.1723 101.452C39.8203 105.569 35.1024 109.411 29.5699 112.382C24.2221 115.122 16.9632 118.055 9.83933 114.091C9.64029 113.973 9.44527 113.85 9.25306 113.721C4.42223 110.42 2.88538 105.028 2.31594 100.506C2.22417 99.7373 2.44523 98.9572 2.92258 98.3389C3.40037 97.7205 4.09537 97.3145 4.86252 97.2091C5.62968 97.1038 6.40844 97.3074 7.03526 97.774C7.66162 98.2407 8.08476 98.9323 8.20375 99.6976C8.76819 103.457 10.2856 106.92 12.7384 108.367C12.8385 108.428 12.9396 108.487 13.0428 108.543C20.5354 112.04 31.5222 103.457 38.83 96.0228C46.5719 88.08 53.0527 78.8005 58.4917 69.0104C63.9012 59.2072 68.3034 48.813 70.8828 38.1729C73.5227 28.2611 73.731 14.2516 68.7932 11.9805C66.0487 10.1294 58.5022 13.2357 53.0199 17.7229C42.3189 26.2225 33.6001 38.1675 26.6507 50.627C23.3746 56.5521 20.5067 62.6861 18.1743 68.9508C16.7781 72.7059 15.5758 76.5102 14.6396 80.3134C14.1666 82.2263 12.9537 83.8588 11.2485 84.8466C9.5444 85.8346 7.48744 86.0971 5.54974 85.5813C3.61206 85.0655 1.95791 83.8152 0.970564 82.1107C-0.0179071 80.4059 -0.25866 78.3865 0.281903 76.4916C1.53193 72.0896 3.05132 67.8279 4.76208 63.6771C7.61961 56.7571 11.0085 50.1402 14.8134 43.7927C22.9552 30.4194 32.5988 17.8314 45.7788 8.036C52.8092 3.51266 61.8863 -3.68393 74.4171 2.23949Z" fill="white"/>
</svg>
